<?xml version="1.0" encoding="UTF-8"?>
<!DOCTYPE svg PUBLIC "-//W3C//DTD SVG 1.1//EN" "http://www.w3.org/Graphics/SVG/1.1/DTD/svg11.dtd">
<svg xmlns="http://www.w3.org/2000/svg" version="1.1" width="731px" height="323px" style="shape-rendering:geometricPrecision; text-rendering:geometricPrecision; image-rendering:optimizeQuality; fill-rule:evenodd; clip-rule:evenodd" xmlns:xlink="http://www.w3.org/1999/xlink">
<g><path style="opacity:1" fill="#5846a9" d="M 248.5,55.5 C 249.833,55.5 251.167,55.5 252.5,55.5C 251.848,56.7251 250.681,57.3917 249,57.5C 245.857,58.1074 242.69,58.4408 239.5,58.5C 239.5,60.1667 239.5,61.8333 239.5,63.5C 229.43,66.0254 219.43,69.1921 209.5,73C 206.243,74.0429 202.91,74.5429 199.5,74.5C 196.728,74.22 194.228,74.8866 192,76.5C 191.601,76.2716 191.435,75.9382 191.5,75.5C 191.918,74.7784 192.584,74.2784 193.5,74C 192.5,73.6667 191.5,73.3333 190.5,73C 198.053,69.8138 205.719,66.8138 213.5,64C 212.5,63.6667 211.5,63.3333 210.5,63C 216.037,59.6543 222.037,57.821 228.5,57.5C 229.376,56.7492 230.376,56.2492 231.5,56C 230.833,55.6667 230.167,55.3333 229.5,55C 235.845,54.5563 242.178,54.723 248.5,55.5 Z"/></g>
<g><path style="opacity:1" fill="#9794dc" d="M 207.5,55.5 C 207.082,56.2216 206.416,56.7216 205.5,57C 208.226,57.1816 210.893,57.6816 213.5,58.5C 206.142,60.5637 198.808,62.7304 191.5,65C 185.974,67.5571 180.641,70.3905 175.5,73.5C 173.938,73.7329 172.605,74.3995 171.5,75.5C 171.38,74.4138 170.713,73.7472 169.5,73.5C 168.584,73.5427 167.917,73.8761 167.5,74.5C 166.662,74.1583 166.328,73.4916 166.5,72.5C 178.698,63.5382 192.365,57.8716 207.5,55.5 Z"/></g>
<g><path style="opacity:1" fill="#ed71e9" d="M 538.5,82.5 C 534.731,81.9602 532.064,83.2935 530.5,86.5C 530.896,83.9556 530.229,81.7889 528.5,80C 521.575,75.4101 514.575,70.9101 507.5,66.5C 500.232,64.3498 492.899,62.5164 485.5,61C 481.825,57.1516 479.991,57.9849 480,63.5C 479.329,64.2524 478.496,64.5858 477.5,64.5C 480.765,59.925 479.598,56.925 474,55.5C 471.876,56.6217 470.043,58.1217 468.5,60C 464.92,59.9134 461.92,61.0801 459.5,63.5C 460.574,59.6089 463.24,57.7756 467.5,58C 467.043,57.586 466.709,57.086 466.5,56.5C 467.729,55.7189 469.062,55.2189 470.5,55C 460.429,54.223 450.429,54.723 440.5,56.5C 469.358,49.4099 496.692,53.5765 522.5,69C 528.317,72.989 533.651,77.489 538.5,82.5 Z"/></g>
<g><path style="opacity:1" fill="#463290" d="M 252.5,55.5 C 264.177,58.6131 275.177,63.2797 285.5,69.5C 285.265,70.0967 284.765,70.4301 284,70.5C 281.18,69.4235 278.514,68.0901 276,66.5C 273.378,67.3121 270.878,68.3121 268.5,69.5C 268.506,66.4524 267.506,65.9524 265.5,68C 265.833,68.3333 266.167,68.6667 266.5,69C 263.118,69.1764 259.785,69.6764 256.5,70.5C 258.073,71.6595 259.739,72.6595 261.5,73.5C 264.012,72.2443 266.512,72.2443 269,73.5C 270.474,71.0842 272.64,70.0842 275.5,70.5C 275.561,72.5922 276.561,74.0922 278.5,75C 275.362,75.08 272.196,74.9133 269,74.5C 263.239,75.8773 257.406,76.5439 251.5,76.5C 251.5,77.5 251.5,78.5 251.5,79.5C 249.167,79.5 246.833,79.5 244.5,79.5C 243.71,78.3915 243.21,77.0581 243,75.5C 233.139,77.0825 223.305,78.4158 213.5,79.5C 207.624,79.7374 201.957,79.7374 196.5,79.5C 201.213,79.5124 202.213,77.8457 199.5,74.5C 202.91,74.5429 206.243,74.0429 209.5,73C 219.43,69.1921 229.43,66.0254 239.5,63.5C 239.5,61.8333 239.5,60.1667 239.5,58.5C 242.69,58.4408 245.857,58.1074 249,57.5C 250.681,57.3917 251.848,56.7251 252.5,55.5 Z"/></g>
<g><path style="opacity:1" fill="#c439d0" d="M 459.5,63.5 C 455.167,68.1667 450.833,72.8333 446.5,77.5C 430.464,78.1511 414.798,77.4844 399.5,75.5C 411.459,65.6899 425.126,59.3566 440.5,56.5C 450.429,54.723 460.429,54.223 470.5,55C 469.062,55.2189 467.729,55.7189 466.5,56.5C 466.709,57.086 467.043,57.586 467.5,58C 463.24,57.7756 460.574,59.6089 459.5,63.5 Z"/></g>
<g><path style="opacity:1" fill="#e849e4" d="M 530.5,86.5 C 526.878,88.7867 523.545,91.4534 520.5,94.5C 520.814,90.8065 519.148,88.4732 515.5,87.5C 511.83,89.8821 507.997,91.8821 504,93.5C 503.5,93 503,92.5 502.5,92C 504.641,90.6924 506.641,89.1924 508.5,87.5C 507.38,85.4038 505.88,85.0705 504,86.5C 502.933,85.8095 501.766,85.3095 500.5,85C 501.823,84.1841 502.489,83.0174 502.5,81.5C 502.451,69.0857 497.451,66.419 487.5,73.5C 478.887,74.2607 470.22,74.9274 461.5,75.5C 460.609,68.5259 463.109,66.5259 469,69.5C 471.241,69.3199 471.741,68.4865 470.5,67C 471,66.8333 471.5,66.6667 472,66.5C 473.626,67.2887 475.126,68.2887 476.5,69.5C 477.452,67.9547 477.785,66.288 477.5,64.5C 478.496,64.5858 479.329,64.2524 480,63.5C 479.991,57.9849 481.825,57.1516 485.5,61C 492.899,62.5164 500.232,64.3498 507.5,66.5C 514.575,70.9101 521.575,75.4101 528.5,80C 530.229,81.7889 530.896,83.9556 530.5,86.5 Z"/></g>
<g><path style="opacity:1" fill="#422886" d="M 285.5,69.5 C 295.719,75.72 305.052,83.0534 313.5,91.5C 310.147,89.8234 306.813,88.1567 303.5,86.5C 301.058,81.895 297.391,78.395 292.5,76C 290.406,76.5994 287.739,77.2661 284.5,78C 283.476,79.3671 283.976,80.2005 286,80.5C 287.559,79.9706 289.059,79.304 290.5,78.5C 291.517,80.8371 293.184,82.5037 295.5,83.5C 296.634,86.9161 295.301,89.0828 291.5,90C 293.25,91.3186 295.25,91.8186 297.5,91.5C 297.672,93.4918 297.005,95.1585 295.5,96.5C 295.987,97.4461 296.32,98.4461 296.5,99.5C 295.771,104.47 295.271,109.47 295,114.5C 293.708,116.249 292.542,118.082 291.5,120C 295.43,121.772 295.097,122.938 290.5,123.5C 288.814,122.143 287.148,120.81 285.5,119.5C 286.496,119.586 287.329,119.252 288,118.5C 290.279,115.037 292.112,111.37 293.5,107.5C 291.672,106.205 289.672,105.205 287.5,104.5C 288.376,103.749 289.376,103.249 290.5,103C 288.114,101.113 286.947,98.6127 287,95.5C 285.135,100.794 283.635,100.794 282.5,95.5C 276.491,95.6662 270.491,95.4995 264.5,95C 264.043,94.586 263.709,94.086 263.5,93.5C 266.994,91.9166 267.16,90.2499 264,88.5C 263.634,80.2331 259.468,77.2331 251.5,79.5C 251.5,78.5 251.5,77.5 251.5,76.5C 257.406,76.5439 263.239,75.8773 269,74.5C 272.196,74.9133 275.362,75.08 278.5,75C 276.561,74.0922 275.561,72.5922 275.5,70.5C 272.64,70.0842 270.474,71.0842 269,73.5C 266.512,72.2443 264.012,72.2443 261.5,73.5C 259.739,72.6595 258.073,71.6595 256.5,70.5C 259.785,69.6764 263.118,69.1764 266.5,69C 266.167,68.6667 265.833,68.3333 265.5,68C 267.506,65.9524 268.506,66.4524 268.5,69.5C 270.878,68.3121 273.378,67.3121 276,66.5C 278.514,68.0901 281.18,69.4235 284,70.5C 284.765,70.4301 285.265,70.0967 285.5,69.5 Z"/></g>
<g><path style="opacity:0.643" fill="#94479f" d="M 399.5,75.5 C 414.798,77.4844 430.464,78.1511 446.5,77.5C 429.995,78.8269 413.329,78.8269 396.5,77.5C 397.005,76.0815 398.005,75.4148 399.5,75.5 Z"/></g>
<g><path style="opacity:1" fill="#cd46cc" d="M 493.5,72.5 C 497.017,72.3511 499.017,74.0178 499.5,77.5C 496.238,84.1017 493.238,83.9351 490.5,77C 490.557,74.7911 491.557,73.2911 493.5,72.5 Z"/></g>
<g><path style="opacity:1" fill="#362980" d="M 244.5,79.5 C 242.863,79.2949 241.196,79.7949 239.5,81C 240.966,81.6355 242.3,82.4688 243.5,83.5C 245.371,82.233 247.204,82.233 249,83.5C 249.499,87.4862 249.666,91.4862 249.5,95.5C 251.5,95.5 253.5,95.5 255.5,95.5C 255.5,96.5 255.5,97.5 255.5,98.5C 252.272,98.2994 249.105,98.6328 246,99.5C 244.333,98.8333 242.667,98.1667 241,97.5C 240.5,97.8333 240,98.1667 239.5,98.5C 240.689,99.4287 242.022,99.762 243.5,99.5C 243.5,100.5 243.5,101.5 243.5,102.5C 246.518,102.335 249.518,102.502 252.5,103C 254.527,104.396 254.86,106.062 253.5,108C 255.119,108.236 256.119,109.069 256.5,110.5C 250.854,108.164 245.187,106.164 239.5,104.5C 236.645,102.75 233.311,101.917 229.5,102C 230.696,101.346 230.696,100.846 229.5,100.5C 226.207,101.969 223.373,101.302 221,98.5C 220.667,98.8333 220.333,99.1667 220,99.5C 218.693,98.2283 217.193,97.2283 215.5,96.5C 218.144,92.2885 216.81,89.7885 211.5,89C 212.833,88.6667 214.167,88.3333 215.5,88C 214.833,87.6667 214.167,87.3333 213.5,87C 216.98,86.6988 220.313,85.8655 223.5,84.5C 217.632,84.1731 211.632,83.5064 205.5,82.5C 205.709,81.914 206.043,81.414 206.5,81C 209.036,80.8138 211.369,80.3138 213.5,79.5C 223.305,78.4158 233.139,77.0825 243,75.5C 243.21,77.0581 243.71,78.3915 244.5,79.5 Z"/></g>
<g><path style="opacity:0.024" fill="#cea9ce" d="M 538.5,82.5 C 540.028,82.5173 540.528,83.184 540,84.5C 539.283,83.9558 538.783,83.2891 538.5,82.5 Z"/></g>
<g><path style="opacity:1" fill="#963cb7" d="M 453.5,75.5 C 452.457,78.0562 450.79,80.2228 448.5,82C 437.5,82.3333 426.5,82.6667 415.5,83C 414.09,83.3678 413.09,84.2011 412.5,85.5C 414.969,86.1681 417.302,86.8347 419.5,87.5C 413.675,86.7449 409.675,89.0782 407.5,94.5C 404.553,95.3214 401.553,95.8214 398.5,96C 391.265,103.739 383.598,110.905 375.5,117.5C 373.233,116.404 371.4,114.737 370,112.5C 370.667,110.167 370.667,107.833 370,105.5C 371.028,103.639 372.528,102.305 374.5,101.5C 375.624,99.6314 376.457,97.6314 377,95.5C 382.003,91.6636 386.503,87.3303 390.5,82.5C 409.329,81.6682 428.329,81.1682 447.5,81C 449.37,78.9604 451.37,77.1271 453.5,75.5 Z"/></g>
<g><path style="opacity:1" fill="#5d59b5" d="M 248.5,55.5 C 242.178,54.723 235.845,54.5563 229.5,55C 230.167,55.3333 230.833,55.6667 231.5,56C 230.376,56.2492 229.376,56.7492 228.5,57.5C 222.037,57.821 216.037,59.6543 210.5,63C 211.5,63.3333 212.5,63.6667 213.5,64C 205.719,66.8138 198.053,69.8138 190.5,73C 191.5,73.3333 192.5,73.6667 193.5,74C 192.584,74.2784 191.918,74.7784 191.5,75.5C 181.021,80.4342 171.355,86.9342 162.5,95C 156.44,97.5571 151.774,101.724 148.5,107.5C 147.675,108.386 146.675,108.719 145.5,108.5C 146.016,105.347 147.35,102.68 149.5,100.5C 156.374,94.4235 163.207,88.0901 170,81.5C 171.747,78.7235 173.58,76.0569 175.5,73.5C 180.641,70.3905 185.974,67.5571 191.5,65C 198.808,62.7304 206.142,60.5637 213.5,58.5C 210.893,57.6816 208.226,57.1816 205.5,57C 206.416,56.7216 207.082,56.2216 207.5,55.5C 214.097,53.9699 220.93,53.3032 228,53.5C 235.07,53.3032 241.903,53.9699 248.5,55.5 Z"/></g>
<g><path style="opacity:1" fill="#2f2c7a" d="M 196.5,79.5 C 201.957,79.7374 207.624,79.7374 213.5,79.5C 211.369,80.3138 209.036,80.8138 206.5,81C 206.043,81.414 205.709,81.914 205.5,82.5C 211.632,83.5064 217.632,84.1731 223.5,84.5C 220.313,85.8655 216.98,86.6988 213.5,87C 214.167,87.3333 214.833,87.6667 215.5,88C 214.167,88.3333 212.833,88.6667 211.5,89C 216.81,89.7885 218.144,92.2885 215.5,96.5C 217.193,97.2283 218.693,98.2283 220,99.5C 220.333,99.1667 220.667,98.8333 221,98.5C 223.373,101.302 226.207,101.969 229.5,100.5C 230.696,100.846 230.696,101.346 229.5,102C 233.311,101.917 236.645,102.75 239.5,104.5C 223.022,101.946 207.689,104.946 193.5,113.5C 191.801,113.34 190.134,113.506 188.5,114C 187.636,115.697 186.303,116.863 184.5,117.5C 184.685,115.514 184.018,113.514 182.5,111.5C 180.711,112.877 178.711,113.877 176.5,114.5C 175.548,112.955 175.215,111.288 175.5,109.5C 172.097,110.363 168.764,111.53 165.5,113C 163.673,116.248 161.34,119.081 158.5,121.5C 158.914,124.99 157.414,127.657 154,129.5C 153.667,130.833 153.333,132.167 153,133.5C 150.167,136.5 147.333,139.5 144.5,142.5C 144.833,143.167 145.167,143.833 145.5,144.5C 144.113,148.772 143.28,153.105 143,157.5C 142.667,158.167 142.333,158.833 142,159.5C 141.333,158.167 140.667,158.167 140,159.5C 139.667,160.833 139.333,162.167 139,163.5C 138.517,162.552 138.351,161.552 138.5,160.5C 140.063,148.892 143.729,138.059 149.5,128C 149.167,127.667 148.833,127.333 148.5,127C 150.971,123.101 152.971,118.934 154.5,114.5C 158.401,108.26 163.068,102.593 168.5,97.5C 170.048,97.1788 170.715,96.1788 170.5,94.5C 173.488,94.6714 175.488,93.3381 176.5,90.5C 183.005,86.4509 189.672,82.7842 196.5,79.5 Z"/></g>
<g><path style="opacity:1" fill="#3d2881" d="M 285.5,119.5 C 283.101,115.633 279.768,113.966 275.5,114.5C 276.865,115.941 278.365,117.274 280,118.5C 280.483,119.448 280.649,120.448 280.5,121.5C 285.426,121.932 285.76,123.432 281.5,126C 282.716,129.232 284.716,131.732 287.5,133.5C 278.467,133.606 269.467,133.106 260.5,132C 260.167,131.667 259.833,131.333 259.5,131C 266.346,130.828 273.013,130.328 279.5,129.5C 280.239,129.631 280.906,129.464 281.5,129C 278.334,127 275.668,124.5 273.5,121.5C 269.353,120.675 265.019,120.175 260.5,120C 262.384,119.784 264.051,119.117 265.5,118C 262.167,117.667 258.833,117.333 255.5,117C 258.5,116.667 261.5,116.333 264.5,116C 265.609,114.187 264.942,113.354 262.5,113.5C 260.181,113.008 258.181,112.008 256.5,110.5C 256.119,109.069 255.119,108.236 253.5,108C 254.86,106.062 254.527,104.396 252.5,103C 249.518,102.502 246.518,102.335 243.5,102.5C 243.5,101.5 243.5,100.5 243.5,99.5C 242.022,99.762 240.689,99.4287 239.5,98.5C 240,98.1667 240.5,97.8333 241,97.5C 242.667,98.1667 244.333,98.8333 246,99.5C 249.105,98.6328 252.272,98.2994 255.5,98.5C 255.5,97.5 255.5,96.5 255.5,95.5C 253.5,95.5 251.5,95.5 249.5,95.5C 249.666,91.4862 249.499,87.4862 249,83.5C 247.204,82.233 245.371,82.233 243.5,83.5C 242.3,82.4688 240.966,81.6355 239.5,81C 241.196,79.7949 242.863,79.2949 244.5,79.5C 246.833,79.5 249.167,79.5 251.5,79.5C 259.468,77.2331 263.634,80.2331 264,88.5C 267.16,90.2499 266.994,91.9166 263.5,93.5C 263.709,94.086 264.043,94.586 264.5,95C 270.491,95.4995 276.491,95.6662 282.5,95.5C 283.635,100.794 285.135,100.794 287,95.5C 286.947,98.6127 288.114,101.113 290.5,103C 289.376,103.249 288.376,103.749 287.5,104.5C 289.672,105.205 291.672,106.205 293.5,107.5C 292.112,111.37 290.279,115.037 288,118.5C 287.329,119.252 286.496,119.586 285.5,119.5 Z"/></g>
<g><path style="opacity:1" fill="#a041b1" d="M 414.5,90.5 C 421.238,91.0611 422.905,94.2278 419.5,100C 414.921,101.577 411.921,100.077 410.5,95.5C 411.16,93.1853 412.493,91.5186 414.5,90.5 Z"/></g>
<g><path style="opacity:1" fill="#ce2fd1" d="M 477.5,78.5 C 482.719,78.4773 487.052,80.3106 490.5,84C 495.145,86.3043 499.145,85.471 502.5,81.5C 502.489,83.0174 501.823,84.1841 500.5,85C 501.766,85.3095 502.933,85.8095 504,86.5C 505.88,85.0705 507.38,85.4038 508.5,87.5C 506.641,89.1924 504.641,90.6924 502.5,92C 503,92.5 503.5,93 504,93.5C 507.997,91.8821 511.83,89.8821 515.5,87.5C 519.148,88.4732 520.814,90.8065 520.5,94.5C 516.833,98.8333 512.833,102.833 508.5,106.5C 502.158,106.666 495.825,106.5 489.5,106C 482.122,105.032 474.788,103.865 467.5,102.5C 467.423,101.25 466.756,100.417 465.5,100C 462.774,99.8184 460.107,99.3184 457.5,98.5C 459.396,97.5344 461.396,97.2011 463.5,97.5C 463.849,94.5371 462.849,92.2038 460.5,90.5C 461.071,88.2586 462.404,86.5919 464.5,85.5C 465.386,86.325 465.719,87.325 465.5,88.5C 466.552,88.3505 467.552,88.5172 468.5,89C 467.269,90.1827 467.269,91.3493 468.5,92.5C 469.221,90.314 469.887,88.1474 470.5,86C 467.057,85.7787 466.724,84.7787 469.5,83C 469.043,82.586 468.709,82.086 468.5,81.5C 471.939,81.0935 474.939,80.0935 477.5,78.5 Z"/></g>
<g><path style="opacity:1" fill="#b833c4" d="M 477.5,64.5 C 477.785,66.288 477.452,67.9547 476.5,69.5C 475.126,68.2887 473.626,67.2887 472,66.5C 471.5,66.6667 471,66.8333 470.5,67C 471.741,68.4865 471.241,69.3199 469,69.5C 463.109,66.5259 460.609,68.5259 461.5,75.5C 470.22,74.9274 478.887,74.2607 487.5,73.5C 487.586,74.4959 487.252,75.3292 486.5,76C 479.5,76.3333 472.5,76.6667 465.5,77C 457.916,89.1247 447.083,93.2913 433,89.5C 432.517,90.448 432.351,91.448 432.5,92.5C 440.174,92.6664 447.841,92.4997 455.5,92C 459.535,88.2998 463.202,84.2998 466.5,80C 470.06,78.7633 473.727,78.2633 477.5,78.5C 474.939,80.0935 471.939,81.0935 468.5,81.5C 468.709,82.086 469.043,82.586 469.5,83C 466.724,84.7787 467.057,85.7787 470.5,86C 469.887,88.1474 469.221,90.314 468.5,92.5C 467.269,91.3493 467.269,90.1827 468.5,89C 467.552,88.5172 466.552,88.3505 465.5,88.5C 465.719,87.325 465.386,86.325 464.5,85.5C 462.404,86.5919 461.071,88.2586 460.5,90.5C 462.849,92.2038 463.849,94.5371 463.5,97.5C 461.396,97.2011 459.396,97.5344 457.5,98.5C 460.107,99.3184 462.774,99.8184 465.5,100C 466.756,100.417 467.423,101.25 467.5,102.5C 460.416,102.26 453.416,102.927 446.5,104.5C 443.869,104.679 441.535,104.013 439.5,102.5C 435.766,104.023 436.099,105.189 440.5,106C 436.753,107.598 433.42,106.764 430.5,103.5C 429.841,106.281 430.841,108.614 433.5,110.5C 433,110.833 432.5,111.167 432,111.5C 429.536,110.15 427.036,108.984 424.5,108C 427.2,107.051 428.033,105.217 427,102.5C 425.815,104.559 424.648,104.726 423.5,103C 423.989,101.862 424.322,100.695 424.5,99.5C 425.525,94.2326 423.858,90.2326 419.5,87.5C 417.302,86.8347 414.969,86.1681 412.5,85.5C 413.09,84.2011 414.09,83.3678 415.5,83C 426.5,82.6667 437.5,82.3333 448.5,82C 450.79,80.2228 452.457,78.0562 453.5,75.5C 456.601,70.5635 460.601,66.3969 465.5,63C 466.833,62.3333 468.167,62.3333 469.5,63C 471.87,65.4291 474.537,65.9291 477.5,64.5 Z"/></g>
<g><path style="opacity:0.682" fill="#9699d3" d="M 166.5,72.5 C 166.328,73.4916 166.662,74.1583 167.5,74.5C 152.36,85.6866 140.193,99.6866 131,116.5C 130.333,118.833 130.333,121.167 131,123.5C 131.383,122.944 131.883,122.611 132.5,122.5C 132.5,123.167 132.5,123.833 132.5,124.5C 132.204,126.403 131.537,128.07 130.5,129.5C 127.747,135.486 125.747,141.819 124.5,148.5C 123.688,145.185 123.354,142.019 123.5,139C 124,138.5 124.5,138 125,137.5C 125.315,134.628 125.815,131.795 126.5,129C 126.164,127.97 125.497,127.47 124.5,127.5C 130.694,108.939 141.028,93.1057 155.5,80C 158.849,76.9955 162.516,74.4955 166.5,72.5 Z"/></g>
<g><path style="opacity:1" fill="#e036dc" d="M 533.5,91.5 C 533.414,92.4959 533.748,93.3292 534.5,94C 536.167,94.3333 537.833,94.6667 539.5,95C 538.549,95.7175 538.383,96.5509 539,97.5C 542.876,101.374 546.376,105.541 549.5,110C 548.228,111.307 547.228,112.807 546.5,114.5C 542.418,112.654 538.085,111.987 533.5,112.5C 533.5,114.5 533.5,116.5 533.5,118.5C 524.494,118.666 515.494,118.5 506.5,118C 504.983,116.315 503.316,114.815 501.5,113.5C 507.925,114.051 512.258,111.384 514.5,105.5C 518.963,100.535 523.63,95.7021 528.5,91C 530.265,90.3603 531.932,90.5269 533.5,91.5 Z"/></g>
<g><path style="opacity:1" fill="#aaafe6" d="M 171.5,75.5 C 153.723,87.2709 140.723,102.938 132.5,122.5C 131.883,122.611 131.383,122.944 131,123.5C 130.333,121.167 130.333,118.833 131,116.5C 140.193,99.6866 152.36,85.6866 167.5,74.5C 167.917,73.8761 168.584,73.5427 169.5,73.5C 170.713,73.7472 171.38,74.4138 171.5,75.5 Z"/></g>
<g><path style="opacity:1" fill="#6e71c0" d="M 175.5,73.5 C 173.58,76.0569 171.747,78.7235 170,81.5C 163.207,88.0901 156.374,94.4235 149.5,100.5C 145,102.639 142.667,106.306 142.5,111.5C 140.773,114.602 138.773,117.602 136.5,120.5C 135.675,121.386 134.675,121.719 133.5,121.5C 133.737,122.791 133.404,123.791 132.5,124.5C 132.5,123.833 132.5,123.167 132.5,122.5C 140.723,102.938 153.723,87.2709 171.5,75.5C 172.605,74.3995 173.938,73.7329 175.5,73.5 Z"/></g>
<g><path style="opacity:1" fill="#a136b8" d="M 424.5,99.5 C 424.322,100.695 423.989,101.862 423.5,103C 424.648,104.726 425.815,104.559 427,102.5C 428.033,105.217 427.2,107.051 424.5,108C 427.036,108.984 429.536,110.15 432,111.5C 432.5,111.167 433,110.833 433.5,110.5C 430.841,108.614 429.841,106.281 430.5,103.5C 433.42,106.764 436.753,107.598 440.5,106C 436.099,105.189 435.766,104.023 439.5,102.5C 441.535,104.013 443.869,104.679 446.5,104.5C 453.416,102.927 460.416,102.26 467.5,102.5C 474.788,103.865 482.122,105.032 489.5,106C 495.825,106.5 502.158,106.666 508.5,106.5C 508.389,107.117 508.056,107.617 507.5,108C 500.833,108.667 494.167,108.667 487.5,108C 466.849,100.737 447.515,103.237 429.5,115.5C 418.86,116.57 408.193,116.737 397.5,116C 394.833,114 392.5,111.667 390.5,109C 392.79,107.223 394.457,105.056 395.5,102.5C 401.128,95.7124 406.462,95.8791 411.5,103C 416.645,105.009 420.979,103.843 424.5,99.5 Z"/></g>
<g><path style="opacity:1" fill="#492688" d="M 313.5,91.5 C 319.219,96.8891 324.886,102.222 330.5,107.5C 330.511,109.017 331.177,110.184 332.5,111C 331.272,111.779 330.272,112.779 329.5,114C 330.309,115.784 330.976,117.617 331.5,119.5C 328.356,124.957 325.356,130.457 322.5,136C 321.584,136.374 320.75,136.874 320,137.5C 319.481,136.484 318.647,135.818 317.5,135.5C 313.091,137.453 308.924,139.787 305,142.5C 304.296,139.522 303.129,136.522 301.5,133.5C 300.5,133.5 299.5,133.5 298.5,133.5C 298.547,138.136 296.547,139.469 292.5,137.5C 292.5,136.5 292.5,135.5 292.5,134.5C 290.833,134.5 289.167,134.5 287.5,134.5C 287.5,134.167 287.5,133.833 287.5,133.5C 284.716,131.732 282.716,129.232 281.5,126C 285.76,123.432 285.426,121.932 280.5,121.5C 280.649,120.448 280.483,119.448 280,118.5C 278.365,117.274 276.865,115.941 275.5,114.5C 279.768,113.966 283.101,115.633 285.5,119.5C 287.148,120.81 288.814,122.143 290.5,123.5C 295.097,122.938 295.43,121.772 291.5,120C 292.542,118.082 293.708,116.249 295,114.5C 295.271,109.47 295.771,104.47 296.5,99.5C 296.32,98.4461 295.987,97.4461 295.5,96.5C 297.005,95.1585 297.672,93.4918 297.5,91.5C 295.25,91.8186 293.25,91.3186 291.5,90C 295.301,89.0828 296.634,86.9161 295.5,83.5C 293.184,82.5037 291.517,80.8371 290.5,78.5C 289.059,79.304 287.559,79.9706 286,80.5C 283.976,80.2005 283.476,79.3671 284.5,78C 287.739,77.2661 290.406,76.5994 292.5,76C 297.391,78.395 301.058,81.895 303.5,86.5C 306.813,88.1567 310.147,89.8234 313.5,91.5 Z"/></g>
<g><path style="opacity:1" fill="#f589f0" d="M 564.5,118.5 C 564.863,121.563 565.53,124.563 566.5,127.5C 566.396,131.286 565.729,131.286 564.5,127.5C 563.614,128.325 563.281,129.325 563.5,130.5C 561.943,125.914 560.443,121.247 559,116.5C 557.685,114.684 556.185,113.017 554.5,111.5C 554.031,107.965 552.531,104.965 550,102.5C 549.506,100.866 549.34,99.1992 549.5,97.5C 548.167,97.5 546.833,97.5 545.5,97.5C 545.167,95.5 544.833,93.5 544.5,91.5C 542.833,91.5 541.167,91.5 539.5,91.5C 540.594,89.6406 541.427,87.6406 542,85.5C 552.123,94.7757 559.623,105.776 564.5,118.5 Z"/></g>
<g><path style="opacity:1" fill="#333073" d="M 262.5,113.5 C 264.942,113.354 265.609,114.187 264.5,116C 261.5,116.333 258.5,116.667 255.5,117C 258.833,117.333 262.167,117.667 265.5,118C 264.051,119.117 262.384,119.784 260.5,120C 265.019,120.175 269.353,120.675 273.5,121.5C 261.162,121.333 248.829,121.5 236.5,122C 232.708,126.729 228.041,127.729 222.5,125C 217.875,115.305 220.875,110.638 231.5,111C 233.954,112.829 236.287,114.662 238.5,116.5C 246.805,115.726 255.139,115.226 263.5,115C 262.944,114.617 262.611,114.117 262.5,113.5 Z M 227.5,117.5 C 229.817,116.466 230.817,117.466 230.5,120.5C 229.022,120.762 227.689,120.429 226.5,119.5C 226.846,118.304 227.346,118.304 228,119.5C 228.692,118.563 228.525,117.897 227.5,117.5 Z"/></g>
<g><path style="opacity:0.012" fill="#a955aa" d="M 497.5,114.5 C 497.833,114.5 498.167,114.5 498.5,114.5C 498.315,115.17 497.981,115.17 497.5,114.5 Z"/></g>
<g><path style="opacity:0.141" fill="#b543b8" d="M 514.5,105.5 C 512.258,111.384 507.925,114.051 501.5,113.5C 503.316,114.815 504.983,116.315 506.5,118C 515.494,118.5 524.494,118.666 533.5,118.5C 524.009,119.658 514.342,119.825 504.5,119C 502.34,117.668 500.34,116.168 498.5,114.5C 498.167,113.167 497.833,113.167 497.5,114.5C 495.767,113.992 495.434,113.159 496.5,112C 500.5,111.667 504.5,111.333 508.5,111C 510.37,108.96 512.37,107.127 514.5,105.5 Z"/></g>
<g><path style="opacity:1" fill="#803eb3" d="M 390.5,82.5 C 386.503,87.3303 382.003,91.6636 377,95.5C 376.457,97.6314 375.624,99.6314 374.5,101.5C 372.528,102.305 371.028,103.639 370,105.5C 370.667,107.833 370.667,110.167 370,112.5C 371.4,114.737 373.233,116.404 375.5,117.5C 369.167,124.5 362.5,131.167 355.5,137.5C 354.5,137.5 353.5,137.5 352.5,137.5C 350.772,133.473 349.439,129.639 348.5,126C 349.374,122.294 351.707,120.127 355.5,119.5C 356.134,117.433 357.134,115.6 358.5,114C 357.906,113.536 357.239,113.369 356.5,113.5C 364.605,105.896 372.605,98.0631 380.5,90C 383.729,87.2589 387.062,84.7589 390.5,82.5 Z"/></g>
<g><path style="opacity:0.518" fill="#c744be" d="M 539.5,116.5 C 543.97,117.265 544.97,119.432 542.5,123C 539.433,124.164 537.767,123.164 537.5,120C 537.862,118.566 538.528,117.399 539.5,116.5 Z"/></g>
<g><path style="opacity:1" fill="#b93ac3" d="M 440.5,125.5 C 439.251,123.864 437.584,122.697 435.5,122C 444.01,121.829 452.343,121.329 460.5,120.5C 468.161,110.597 474.495,111.43 479.5,123C 477.847,129.994 473.514,132.661 466.5,131C 464.208,129.71 462.208,128.043 460.5,126C 453.66,125.643 446.994,125.476 440.5,125.5 Z M 467.5,120.5 C 470.045,120.151 472.045,120.984 473.5,123C 469.603,126.756 467.603,125.923 467.5,120.5 Z"/></g>
<g><path style="opacity:1" fill="#923cb1" d="M 460.5,120.5 C 452.343,121.329 444.01,121.829 435.5,122C 437.584,122.697 439.251,123.864 440.5,125.5C 433.327,126.655 426.16,126.655 419,125.5C 415.981,126.505 413.481,128.338 411.5,131C 405.141,131.169 398.807,131.669 392.5,132.5C 409.824,133.333 427.157,133.833 444.5,134C 445.381,134.708 446.047,135.542 446.5,136.5C 445.244,136.539 444.244,136.039 443.5,135C 428.833,134.333 414.167,134.333 399.5,135C 401.359,135.684 403.026,136.684 404.5,138C 417.007,138.169 429.34,138.669 441.5,139.5C 428.496,139.333 415.496,139.5 402.5,140C 401.627,141.045 400.627,141.878 399.5,142.5C 396.904,144.238 393.904,145.238 390.5,145.5C 388.833,145.333 387.167,145.167 385.5,145C 386.5,144.667 387.5,144.333 388.5,144C 384.028,144.013 380.361,142.347 377.5,139C 381.167,135.833 384.833,132.667 388.5,129.5C 389.127,128.583 389.461,127.583 389.5,126.5C 391.294,124.203 393.294,122.037 395.5,120C 417.161,120.083 438.828,120.25 460.5,120.5 Z"/></g>
<g><path style="opacity:1" fill="#eb58e6" d="M 533.5,91.5 C 535.451,92.6414 537.451,92.6414 539.5,91.5C 541.167,91.5 542.833,91.5 544.5,91.5C 544.833,93.5 545.167,95.5 545.5,97.5C 546.833,97.5 548.167,97.5 549.5,97.5C 549.34,99.1992 549.506,100.866 550,102.5C 552.531,104.965 554.031,107.965 554.5,111.5C 556.185,113.017 557.685,114.684 559,116.5C 560.443,121.247 561.943,125.914 563.5,130.5C 564.096,135.014 565.263,139.348 567,143.5C 569.954,166.891 566.621,189.224 557,210.5C 554.31,212.895 552.643,215.895 552,219.5C 550.306,220.699 548.806,222.032 547.5,223.5C 547.634,220.232 549.134,217.898 552,216.5C 552.066,213.724 553.232,211.558 555.5,210C 554.062,209.781 552.729,209.281 551.5,208.5C 554.241,206.068 556.075,203.068 557,199.5C 557.322,192.352 557.489,185.352 557.5,178.5C 555.718,172.454 556.384,166.454 559.5,160.5C 558.5,158.833 557.167,157.5 555.5,156.5C 556.853,155.476 557.52,154.143 557.5,152.5C 553.671,153.069 550.337,152.402 547.5,150.5C 553.636,152.766 557.636,150.766 559.5,144.5C 557.578,137.672 553.244,135.672 546.5,138.5C 546.611,137.883 546.944,137.383 547.5,137C 550.817,136.502 554.15,136.335 557.5,136.5C 557.48,134.857 558.147,133.524 559.5,132.5C 556.101,130.718 552.767,129.051 549.5,127.5C 549.649,128.552 549.483,129.552 549,130.5C 546.703,127.279 543.703,126.612 540,128.5C 537.744,128.453 536.244,127.453 535.5,125.5C 543.416,128.311 547.249,125.644 547,117.5C 542.011,112.045 537.511,112.378 533.5,118.5C 533.5,116.5 533.5,114.5 533.5,112.5C 538.085,111.987 542.418,112.654 546.5,114.5C 547.228,112.807 548.228,111.307 549.5,110C 546.376,105.541 542.876,101.374 539,97.5C 538.383,96.5509 538.549,95.7175 539.5,95C 537.833,94.6667 536.167,94.3333 534.5,94C 533.748,93.3292 533.414,92.4959 533.5,91.5 Z"/></g>
<g><path style="opacity:1" fill="#444594" d="M 199.5,74.5 C 202.213,77.8457 201.213,79.5124 196.5,79.5C 189.672,82.7842 183.005,86.4509 176.5,90.5C 175.488,93.3381 173.488,94.6714 170.5,94.5C 170.715,96.1788 170.048,97.1788 168.5,97.5C 166.628,98.5114 164.628,99.3448 162.5,100C 159.784,103.261 156.951,106.428 154,109.5C 151.349,115.106 148.849,120.772 146.5,126.5C 144.159,128.671 141.659,130.671 139,132.5C 134.864,149.514 131.364,166.68 128.5,184C 129.399,190.468 130.399,196.968 131.5,203.5C 132.546,206.538 134.379,208.871 137,210.5C 139.812,216.722 142.812,222.722 146,228.5C 151.173,230.499 155.34,233.833 158.5,238.5C 166.863,242.004 175.197,245.17 183.5,248C 192.792,249.231 202.126,249.731 211.5,249.5C 212.609,250.29 213.942,250.79 215.5,251C 214.207,251.49 212.873,251.657 211.5,251.5C 210.127,251.343 208.793,251.51 207.5,252C 208.737,252.232 209.737,252.732 210.5,253.5C 201.124,253.445 191.957,253.445 183,253.5C 180.955,252.113 178.788,250.946 176.5,250C 174.866,249.506 173.199,249.34 171.5,249.5C 168.121,246.801 164.454,244.468 160.5,242.5C 160.5,244.167 160.5,245.833 160.5,247.5C 158.079,245.066 155.412,243.066 152.5,241.5C 142.154,233.136 134.487,222.803 129.5,210.5C 128.929,207.523 127.929,204.69 126.5,202C 127.448,201.517 128.448,201.351 129.5,201.5C 128.816,195.094 127.649,188.761 126,182.5C 124.612,169.56 125.612,156.893 129,144.5C 129.411,139.481 129.911,134.481 130.5,129.5C 131.537,128.07 132.204,126.403 132.5,124.5C 133.404,123.791 133.737,122.791 133.5,121.5C 134.675,121.719 135.675,121.386 136.5,120.5C 138.773,117.602 140.773,114.602 142.5,111.5C 142.667,106.306 145,102.639 149.5,100.5C 147.35,102.68 146.016,105.347 145.5,108.5C 146.675,108.719 147.675,108.386 148.5,107.5C 151.774,101.724 156.44,97.5571 162.5,95C 171.355,86.9342 181.021,80.4342 191.5,75.5C 191.435,75.9382 191.601,76.2716 192,76.5C 194.228,74.8866 196.728,74.22 199.5,74.5 Z"/></g>
<g><path style="opacity:1" fill="#d930d7" d="M 535.5,125.5 C 536.244,127.453 537.744,128.453 540,128.5C 543.703,126.612 546.703,127.279 549,130.5C 549.483,129.552 549.649,128.552 549.5,127.5C 552.767,129.051 556.101,130.718 559.5,132.5C 558.147,133.524 557.48,134.857 557.5,136.5C 554.15,136.335 550.817,136.502 547.5,137C 546.944,137.383 546.611,137.883 546.5,138.5C 546.167,139.167 545.833,139.833 545.5,140.5C 539.807,140.701 534.14,140.868 528.5,141C 527.672,140.085 526.672,139.419 525.5,139C 526.833,138.333 528.167,137.667 529.5,137C 528.033,135.902 527.199,134.402 527,132.5C 525.989,133.337 524.822,133.67 523.5,133.5C 523.657,134.873 523.49,136.207 523,137.5C 521.759,136.062 521.259,134.562 521.5,133C 522.308,131.294 523.641,130.461 525.5,130.5C 525.966,128.799 525.966,127.299 525.5,126C 528.79,124.265 532.123,124.099 535.5,125.5 Z"/></g>
<g><path style="opacity:1" fill="#272970" d="M 193.5,113.5 C 185.646,120.347 179.313,128.347 174.5,137.5C 173.905,134.887 173.071,134.887 172,137.5C 170.139,142.296 168.806,147.296 168,152.5C 166.887,151.289 165.72,151.289 164.5,152.5C 162.522,154.436 161.189,156.77 160.5,159.5C 159.914,159.291 159.414,158.957 159,158.5C 158.503,156.19 158.337,153.857 158.5,151.5C 156.007,151.024 154.007,149.69 152.5,147.5C 149.495,153.51 146.495,159.51 143.5,165.5C 143.402,178.01 143.568,190.677 144,203.5C 145.598,210.886 149.764,216.22 156.5,219.5C 157.168,222.685 158.502,225.518 160.5,228C 165.051,229.215 169.718,229.881 174.5,230C 175.595,231.675 177.095,232.842 179,233.5C 180.897,231.984 183.064,231.317 185.5,231.5C 185.5,230.5 185.5,229.5 185.5,228.5C 186.5,228.5 187.5,228.5 188.5,228.5C 188.5,229.5 188.5,230.5 188.5,231.5C 189.5,231.5 190.5,231.5 191.5,231.5C 191.5,230.167 191.5,228.833 191.5,227.5C 189.169,227.502 187.169,226.669 185.5,225C 187.433,224.749 189.266,224.249 191,223.5C 191.749,221.32 192.249,218.987 192.5,216.5C 195.063,218.632 197.896,220.298 201,221.5C 201.5,221.333 202,221.167 202.5,221C 201.743,219.488 200.743,218.154 199.5,217C 199.833,216.833 200.167,216.667 200.5,216.5C 211.055,221.805 222.055,223.471 233.5,221.5C 230.57,222.701 229.904,224.701 231.5,227.5C 229.382,231.567 227.382,235.567 225.5,239.5C 223.571,239.231 221.905,239.731 220.5,241C 222.119,241.236 223.119,242.069 223.5,243.5C 220.938,244.971 218.104,245.638 215,245.5C 207.223,245.742 199.39,245.242 191.5,244C 194.5,243.667 197.5,243.333 200.5,243C 193.753,242.966 187.253,241.799 181,239.5C 180.667,239.833 180.333,240.167 180,240.5C 173.539,238.105 167.039,235.772 160.5,233.5C 159.914,233.709 159.414,234.043 159,234.5C 156.232,232.204 153.399,230.204 150.5,228.5C 149.412,224.557 147.246,221.224 144,218.5C 141.584,213.999 138.917,209.666 136,205.5C 135.774,201.113 135.274,196.779 134.5,192.5C 135.191,189.998 134.858,187.498 133.5,185C 134.36,177.849 135.194,170.682 136,163.5C 136.377,162.058 137.21,161.058 138.5,160.5C 138.351,161.552 138.517,162.552 139,163.5C 139.333,162.167 139.667,160.833 140,159.5C 140.667,158.167 141.333,158.167 142,159.5C 142.333,158.833 142.667,158.167 143,157.5C 143.28,153.105 144.113,148.772 145.5,144.5C 145.167,143.833 144.833,143.167 144.5,142.5C 147.333,139.5 150.167,136.5 153,133.5C 153.333,132.167 153.667,130.833 154,129.5C 157.414,127.657 158.914,124.99 158.5,121.5C 161.34,119.081 163.673,116.248 165.5,113C 168.764,111.53 172.097,110.363 175.5,109.5C 175.215,111.288 175.548,112.955 176.5,114.5C 178.711,113.877 180.711,112.877 182.5,111.5C 184.018,113.514 184.685,115.514 184.5,117.5C 186.303,116.863 187.636,115.697 188.5,114C 190.134,113.506 191.801,113.34 193.5,113.5 Z"/></g>
<g><path style="opacity:1" fill="#46257f" d="M 330.5,107.5 C 336.194,112.527 341.527,117.86 346.5,123.5C 340.189,130.814 333.856,138.147 327.5,145.5C 333.5,146.833 339.5,146.833 345.5,145.5C 346.853,144.476 347.52,143.143 347.5,141.5C 350.367,141.631 352.033,140.297 352.5,137.5C 353.5,137.5 354.5,137.5 355.5,137.5C 352.704,140.797 349.704,143.964 346.5,147C 339.5,147.333 332.5,147.667 325.5,148C 324.944,148.383 324.611,148.883 324.5,149.5C 320.53,153.46 316.196,157.127 311.5,160.5C 307.486,160.666 303.486,160.499 299.5,160C 300.337,158.989 300.67,157.822 300.5,156.5C 306.018,158.956 308.185,157.289 307,151.5C 303.605,148.593 300.105,145.927 296.5,143.5C 293.833,140.167 290.833,137.167 287.5,134.5C 289.167,134.5 290.833,134.5 292.5,134.5C 292.5,135.5 292.5,136.5 292.5,137.5C 296.547,139.469 298.547,138.136 298.5,133.5C 299.5,133.5 300.5,133.5 301.5,133.5C 303.129,136.522 304.296,139.522 305,142.5C 308.924,139.787 313.091,137.453 317.5,135.5C 318.647,135.818 319.481,136.484 320,137.5C 320.75,136.874 321.584,136.374 322.5,136C 325.356,130.457 328.356,124.957 331.5,119.5C 330.976,117.617 330.309,115.784 329.5,114C 330.272,112.779 331.272,111.779 332.5,111C 331.177,110.184 330.511,109.017 330.5,107.5 Z"/></g>
<g><path style="opacity:1" fill="#a737b7" d="M 446.5,136.5 C 449.297,138.795 451.964,141.295 454.5,144C 456.833,144.667 459.167,144.667 461.5,144C 465.15,138.894 469.484,138.228 474.5,142C 478.623,151.215 475.623,155.548 465.5,155C 463.395,153.807 461.728,152.14 460.5,150C 458.144,149.845 455.811,149.845 453.5,150C 452.167,149.333 450.833,148.667 449.5,148C 447.333,144.667 444.666,141.834 441.5,139.5C 429.34,138.669 417.007,138.169 404.5,138C 403.026,136.684 401.359,135.684 399.5,135C 414.167,134.333 428.833,134.333 443.5,135C 444.244,136.039 445.244,136.539 446.5,136.5 Z M 467.5,145.5 C 472.663,147.424 472.663,148.591 467.5,149C 466.316,147.855 466.316,146.688 467.5,145.5 Z"/></g>
<g><path style="opacity:1" fill="#8441b1" d="M 395.5,102.5 C 394.457,105.056 392.79,107.223 390.5,109C 392.5,111.667 394.833,114 397.5,116C 408.193,116.737 418.86,116.57 429.5,115.5C 428.737,116.268 427.737,116.768 426.5,117C 415.5,117.333 404.5,117.667 393.5,118C 383.965,127.702 374.298,137.202 364.5,146.5C 363.5,146.5 362.5,146.5 361.5,146.5C 360.167,144.167 358.833,141.833 357.5,139.5C 370.14,127.194 382.807,114.861 395.5,102.5 Z"/></g>
<g><path style="opacity:1" fill="#6940a9" d="M 356.5,113.5 C 357.239,113.369 357.906,113.536 358.5,114C 357.134,115.6 356.134,117.433 355.5,119.5C 351.707,120.127 349.374,122.294 348.5,126C 349.439,129.639 350.772,133.473 352.5,137.5C 352.033,140.297 350.367,141.631 347.5,141.5C 347.52,143.143 346.853,144.476 345.5,145.5C 339.5,146.833 333.5,146.833 327.5,145.5C 333.856,138.147 340.189,130.814 346.5,123.5C 350.167,120.5 353.5,117.167 356.5,113.5 Z"/></g>
<g><path style="opacity:1" fill="#c132c3" d="M 535.5,125.5 C 532.123,124.099 528.79,124.265 525.5,126C 525.966,127.299 525.966,128.799 525.5,130.5C 523.641,130.461 522.308,131.294 521.5,133C 521.259,134.562 521.759,136.062 523,137.5C 523.49,136.207 523.657,134.873 523.5,133.5C 524.822,133.67 525.989,133.337 527,132.5C 527.199,134.402 528.033,135.902 529.5,137C 528.167,137.667 526.833,138.333 525.5,139C 526.672,139.419 527.672,140.085 528.5,141C 534.14,140.868 539.807,140.701 545.5,140.5C 545.389,141.117 545.056,141.617 544.5,142C 536.622,143.435 528.789,143.602 521,142.5C 518.172,135.501 514.338,129.168 509.5,123.5C 517.391,122.819 525.224,122.152 533,121.5C 534.481,122.471 535.315,123.804 535.5,125.5 Z"/></g>
<g><path style="opacity:1" fill="#363371" d="M 279.5,129.5 C 273.013,130.328 266.346,130.828 259.5,131C 259.833,131.333 260.167,131.667 260.5,132C 269.467,133.106 278.467,133.606 287.5,133.5C 287.5,133.833 287.5,134.167 287.5,134.5C 278.475,134.168 269.475,134.502 260.5,135.5C 258.997,137.422 256.997,138.588 254.5,139C 259.833,144.333 265.167,149.667 270.5,155C 282.514,155.833 294.514,155.666 306.5,154.5C 303.145,150.813 299.811,147.147 296.5,143.5C 300.105,145.927 303.605,148.593 307,151.5C 308.185,157.289 306.018,158.956 300.5,156.5C 300.67,157.822 300.337,158.989 299.5,160C 303.486,160.499 307.486,160.666 311.5,160.5C 311.5,160.833 311.5,161.167 311.5,161.5C 297.163,161.667 282.829,161.5 268.5,161C 262.802,154.968 256.802,149.301 250.5,144C 248.5,143.333 246.5,143.333 244.5,144C 241.598,147.197 238.264,147.864 234.5,146C 232.092,142.957 231.926,139.791 234,136.5C 235.126,135.056 236.626,134.39 238.5,134.5C 241.493,135.486 244.493,136.486 247.5,137.5C 248.833,137.333 250.167,137.167 251.5,137C 248.667,133.337 249,130.004 252.5,127C 255.649,125.965 258.316,126.632 260.5,129C 266.825,129.5 273.158,129.666 279.5,129.5 Z"/></g>
<g><path style="opacity:1" fill="#c94fc2" d="M 549.5,140.5 C 553.145,139.68 555.478,141.013 556.5,144.5C 553.203,149.902 550.203,149.735 547.5,144C 547.978,142.697 548.645,141.531 549.5,140.5 Z"/></g>
<g><path style="opacity:1" fill="#c239c4" d="M 547.5,150.5 C 545.565,149.85 543.565,149.517 541.5,149.5C 541.5,150.833 541.5,152.167 541.5,153.5C 540.325,153.281 539.325,153.614 538.5,154.5C 539.304,155.941 539.971,157.441 540.5,159C 540.045,161.195 539.711,163.362 539.5,165.5C 536.127,164.225 532.793,164.392 529.5,166C 532.842,167.006 535.842,168.673 538.5,171C 532.534,173.652 531.2,174.152 534.5,172.5C 534.5,171.5 534.5,170.5 534.5,169.5C 531.19,169.539 528.524,168.206 526.5,165.5C 525.571,166.689 525.238,168.022 525.5,169.5C 526.978,169.238 528.311,169.571 529.5,170.5C 527.955,171.452 526.288,171.785 524.5,171.5C 523.791,177.239 522.791,182.906 521.5,188.5C 524.076,188.532 526.409,187.865 528.5,186.5C 528.315,188.196 527.481,189.529 526,190.5C 523.26,189.718 520.426,189.218 517.5,189C 522.23,179.323 523.897,169.156 522.5,158.5C 524.905,159.687 527.239,161.187 529.5,163C 536.152,163.517 538.319,160.684 536,154.5C 532.355,150.484 528.855,150.65 525.5,155C 523.167,155.667 520.833,155.667 518.5,155C 513.853,150.866 509.853,146.366 506.5,141.5C 508.199,141.34 509.866,141.506 511.5,142C 514.725,145.193 518.225,148.026 522,150.5C 522.492,149.451 522.326,148.451 521.5,147.5C 522.025,146.808 522.692,146.308 523.5,146C 526.5,145.833 529.5,145.667 532.5,145.5C 536.207,145.912 539.707,145.912 543,145.5C 544.707,147.037 546.207,148.704 547.5,150.5 Z"/></g>
<g><path style="opacity:1" fill="#212465" d="M 174.5,137.5 C 165.836,161.208 169.336,182.874 185,202.5C 201.478,218.662 220.978,223.996 243.5,218.5C 243.38,219.586 242.713,220.253 241.5,220.5C 238.885,221.269 236.219,221.603 233.5,221.5C 222.055,223.471 211.055,221.805 200.5,216.5C 200.167,216.667 199.833,216.833 199.5,217C 200.743,218.154 201.743,219.488 202.5,221C 202,221.167 201.5,221.333 201,221.5C 197.896,220.298 195.063,218.632 192.5,216.5C 192.249,218.987 191.749,221.32 191,223.5C 189.266,224.249 187.433,224.749 185.5,225C 187.169,226.669 189.169,227.502 191.5,227.5C 191.5,228.833 191.5,230.167 191.5,231.5C 190.5,231.5 189.5,231.5 188.5,231.5C 188.5,230.5 188.5,229.5 188.5,228.5C 187.5,228.5 186.5,228.5 185.5,228.5C 185.5,229.5 185.5,230.5 185.5,231.5C 183.064,231.317 180.897,231.984 179,233.5C 177.095,232.842 175.595,231.675 174.5,230C 169.718,229.881 165.051,229.215 160.5,228C 158.502,225.518 157.168,222.685 156.5,219.5C 149.764,216.22 145.598,210.886 144,203.5C 143.568,190.677 143.402,178.01 143.5,165.5C 146.495,159.51 149.495,153.51 152.5,147.5C 154.007,149.69 156.007,151.024 158.5,151.5C 158.337,153.857 158.503,156.19 159,158.5C 159.414,158.957 159.914,159.291 160.5,159.5C 161.189,156.77 162.522,154.436 164.5,152.5C 165.72,151.289 166.887,151.289 168,152.5C 168.806,147.296 170.139,142.296 172,137.5C 173.071,134.887 173.905,134.887 174.5,137.5 Z"/></g>
<g><path style="opacity:1" fill="#6345a3" d="M 357.5,139.5 C 358.833,141.833 360.167,144.167 361.5,146.5C 362.5,146.5 363.5,146.5 364.5,146.5C 359.036,152.465 353.37,158.298 347.5,164C 335.153,164.833 322.82,164.666 310.5,163.5C 310.863,162.817 311.196,162.15 311.5,161.5C 311.5,161.167 311.5,160.833 311.5,160.5C 316.196,157.127 320.53,153.46 324.5,149.5C 331.876,149.966 339.042,150.299 346,150.5C 349.702,146.63 353.536,142.963 357.5,139.5 Z"/></g>
<g><path style="opacity:1" fill="#8534a6" d="M 399.5,156.5 C 396.359,155.679 393.025,155.179 389.5,155C 388.833,154.333 388.167,153.667 387.5,153C 397.374,152.81 407.04,151.977 416.5,150.5C 419.468,144.569 423.801,143.403 429.5,147C 433.926,152.441 433.259,157.108 427.5,161C 425.167,161.667 422.833,161.667 420.5,161C 418.694,159.194 416.86,157.36 415,155.5C 412.595,156.274 410.095,156.774 407.5,157C 410.714,161.882 414.881,165.715 420,168.5C 424.745,163.257 429.412,163.257 434,168.5C 435.206,178.493 431.039,181.66 421.5,178C 420.5,176.333 419.5,174.667 418.5,173C 416.833,172.667 415.167,172.333 413.5,172C 408.256,167.261 403.59,162.095 399.5,156.5 Z M 423.5,150.5 C 427.234,151.974 427.4,153.64 424,155.5C 420.928,154.119 420.761,152.452 423.5,150.5 Z M 425.5,170.5 C 430.236,170.885 430.569,172.219 426.5,174.5C 424.824,173.272 424.491,171.939 425.5,170.5 Z"/></g>
<g><path style="opacity:0.78" fill="#a638a4" d="M 529.5,154.5 C 532.114,154.277 533.781,155.444 534.5,158C 529.464,161.802 527.798,160.635 529.5,154.5 Z"/></g>
<g><path style="opacity:0.97" fill="#f1aaef" d="M 572.5,144.5 C 575.137,156.83 575.137,169.163 572.5,181.5C 572.5,179.5 572.5,177.5 572.5,175.5C 571.5,175.5 570.5,175.5 569.5,175.5C 569.169,167.804 569.503,160.138 570.5,152.5C 571.192,153.025 571.692,153.692 572,154.5C 572.498,151.183 572.665,147.85 572.5,144.5 Z"/></g>
<g><path style="opacity:1" fill="#37336f" d="M 348.5,166.5 C 347.306,167.777 345.64,168.444 343.5,168.5C 331.847,167.445 320.18,167.278 308.5,168C 307.833,168.667 307.167,169.333 306.5,170C 303.3,170.101 300.3,170.768 297.5,172C 299.087,172.862 300.754,173.529 302.5,174C 309.013,174.172 315.347,174.672 321.5,175.5C 321.5,175.833 321.5,176.167 321.5,176.5C 302.256,175.019 282.923,174.186 263.5,174C 260.833,171.333 258.167,168.667 255.5,166C 247.147,165.168 238.813,165.335 230.5,166.5C 226.243,171.427 221.577,171.76 216.5,167.5C 212.929,160.304 215.096,155.637 223,153.5C 226.43,153.805 228.93,155.472 230.5,158.5C 239.482,159.332 248.482,159.832 257.5,160C 260.167,162.667 262.833,165.333 265.5,168C 293.256,167.66 320.922,167.16 348.5,166.5 Z M 221.5,159.5 C 225.161,159.35 226.161,160.85 224.5,164C 220.707,164.487 219.707,162.987 221.5,159.5 Z"/></g>
<g><path style="opacity:1" fill="#6a6eb4" d="M 124.5,127.5 C 125.497,127.47 126.164,127.97 126.5,129C 125.815,131.795 125.315,134.628 125,137.5C 124.5,138 124,138.5 123.5,139C 123.354,142.019 123.688,145.185 124.5,148.5C 125.747,141.819 127.747,135.486 130.5,129.5C 129.911,134.481 129.411,139.481 129,144.5C 125.612,156.893 124.612,169.56 126,182.5C 127.649,188.761 128.816,195.094 129.5,201.5C 128.448,201.351 127.448,201.517 126.5,202C 127.929,204.69 128.929,207.523 129.5,210.5C 116.916,183.601 115.25,155.934 124.5,127.5 Z"/></g>
<g><path style="opacity:1" fill="#6443a4" d="M 389.5,126.5 C 389.461,127.583 389.127,128.583 388.5,129.5C 384.833,132.667 381.167,135.833 377.5,139C 380.361,142.347 384.028,144.013 388.5,144C 387.5,144.333 386.5,144.667 385.5,145C 387.167,145.167 388.833,145.333 390.5,145.5C 393.904,145.238 396.904,144.238 399.5,142.5C 398.375,144.129 397.041,145.629 395.5,147C 390.167,147.333 384.833,147.667 379.5,148C 370.933,157.07 361.933,165.57 352.5,173.5C 350.072,174.415 347.739,175.582 345.5,177C 344.663,178.011 344.33,179.178 344.5,180.5C 342.905,181.362 341.238,181.862 339.5,182C 339.833,181.667 340.167,181.333 340.5,181C 337.504,180.478 335.171,178.978 333.5,176.5C 331.381,178.4 329.047,180.066 326.5,181.5C 325.571,180.311 325.238,178.978 325.5,177.5C 323.801,177.473 322.467,176.806 321.5,175.5C 315.347,174.672 309.013,174.172 302.5,174C 300.754,173.529 299.087,172.862 297.5,172C 300.3,170.768 303.3,170.101 306.5,170C 307.167,169.333 307.833,168.667 308.5,168C 320.18,167.278 331.847,167.445 343.5,168.5C 345.64,168.444 347.306,167.777 348.5,166.5C 361.531,152.469 375.198,139.135 389.5,126.5 Z"/></g>
<g><path style="opacity:1" fill="#a136ae" d="M 469.5,172.5 C 461.677,171.671 453.677,171.171 445.5,171C 446.381,169.529 447.714,168.696 449.5,168.5C 456.66,167.941 463.66,167.275 470.5,166.5C 472.977,161.172 476.977,159.672 482.5,162C 488.205,167.814 487.538,172.814 480.5,177C 475.626,178.224 471.959,176.724 469.5,172.5 Z M 476.5,166.5 C 480.161,166.35 481.161,167.85 479.5,171C 475.707,171.487 474.707,169.987 476.5,166.5 Z"/></g>
<g><path style="opacity:1" fill="#313268" d="M 252.5,181.5 C 245.424,177.524 244.758,178.691 250.5,185C 252.167,185.333 253.833,185.667 255.5,186C 265.342,186.17 275.009,186.67 284.5,187.5C 273.162,187.667 261.828,187.5 250.5,187C 247.833,184.333 245.167,181.667 242.5,179C 234.147,178.168 225.813,178.335 217.5,179.5C 214.988,182.709 211.988,183.209 208.5,181C 205.165,178.321 204.665,175.155 207,171.5C 209.497,169.522 212.331,169.022 215.5,170C 216.357,170.689 217.023,171.522 217.5,172.5C 227.149,173.332 236.816,173.832 246.5,174C 249.118,176.106 251.118,178.606 252.5,181.5 Z"/></g>
<g><path style="opacity:1" fill="#333681" d="M 168.5,97.5 C 163.068,102.593 158.401,108.26 154.5,114.5C 152.971,118.934 150.971,123.101 148.5,127C 148.833,127.333 149.167,127.667 149.5,128C 143.729,138.059 140.063,148.892 138.5,160.5C 137.21,161.058 136.377,162.058 136,163.5C 135.194,170.682 134.36,177.849 133.5,185C 134.858,187.498 135.191,189.998 134.5,192.5C 135.274,196.779 135.774,201.113 136,205.5C 138.917,209.666 141.584,213.999 144,218.5C 147.246,221.224 149.412,224.557 150.5,228.5C 153.399,230.204 156.232,232.204 159,234.5C 159.414,234.043 159.914,233.709 160.5,233.5C 167.039,235.772 173.539,238.105 180,240.5C 180.333,240.167 180.667,239.833 181,239.5C 187.253,241.799 193.753,242.966 200.5,243C 197.5,243.333 194.5,243.667 191.5,244C 199.39,245.242 207.223,245.742 215,245.5C 218.104,245.638 220.938,244.971 223.5,243.5C 225.179,243.892 226.846,244.392 228.5,245C 224.205,245.912 219.872,246.579 215.5,247C 216.793,247.49 218.127,247.657 219.5,247.5C 217.039,248.531 214.373,249.198 211.5,249.5C 202.126,249.731 192.792,249.231 183.5,248C 175.197,245.17 166.863,242.004 158.5,238.5C 155.34,233.833 151.173,230.499 146,228.5C 142.812,222.722 139.812,216.722 137,210.5C 134.379,208.871 132.546,206.538 131.5,203.5C 130.399,196.968 129.399,190.468 128.5,184C 131.364,166.68 134.864,149.514 139,132.5C 141.659,130.671 144.159,128.671 146.5,126.5C 148.849,120.772 151.349,115.106 154,109.5C 156.951,106.428 159.784,103.261 162.5,100C 164.628,99.3448 166.628,98.5114 168.5,97.5 Z"/></g>
<g><path style="opacity:1" fill="#53227c" d="M 382.5,162.5 C 382.389,163.117 382.056,163.617 381.5,164C 386.801,170.302 392.468,176.302 398.5,182C 403.823,182.499 409.156,182.666 414.5,182.5C 413.791,183.404 412.791,183.737 411.5,183.5C 406.156,183.666 400.823,183.499 395.5,183C 394.333,181.833 393.167,180.667 392,179.5C 391.667,179.833 391.333,180.167 391,180.5C 390.506,178.866 390.34,177.199 390.5,175.5C 387.986,175.754 385.652,176.587 383.5,178C 381.161,181.838 378.494,185.505 375.5,189C 380.391,190.114 385.391,190.614 390.5,190.5C 394.833,190.167 399.167,189.833 403.5,189.5C 403.863,188.817 404.196,188.15 404.5,187.5C 414.348,187.173 424.014,187.506 433.5,188.5C 424.161,188.334 414.827,188.5 405.5,189C 407.891,190.309 407.891,191.309 405.5,192C 388.17,192.5 370.837,192.667 353.5,192.5C 362.571,181.765 372.238,171.765 382.5,162.5 Z"/></g>
<g><path style="opacity:1" fill="#65238d" d="M 411.5,183.5 C 407.03,184.486 402.363,184.819 397.5,184.5C 397.5,185.5 397.5,186.5 397.5,187.5C 399.833,187.5 402.167,187.5 404.5,187.5C 404.196,188.15 403.863,188.817 403.5,189.5C 399.167,189.833 394.833,190.167 390.5,190.5C 385.391,190.614 380.391,190.114 375.5,189C 378.494,185.505 381.161,181.838 383.5,178C 385.652,176.587 387.986,175.754 390.5,175.5C 390.34,177.199 390.506,178.866 391,180.5C 391.333,180.167 391.667,179.833 392,179.5C 393.167,180.667 394.333,181.833 395.5,183C 400.823,183.499 406.156,183.666 411.5,183.5 Z"/></g>
<g><path style="opacity:1" fill="#8633a4" d="M 470.5,166.5 C 463.66,167.275 456.66,167.941 449.5,168.5C 447.714,168.696 446.381,169.529 445.5,171C 453.677,171.171 461.677,171.671 469.5,172.5C 462.492,172.334 455.492,172.5 448.5,173C 443.996,178.67 438.996,183.837 433.5,188.5C 424.014,187.506 414.348,187.173 404.5,187.5C 402.167,187.5 399.833,187.5 397.5,187.5C 397.5,186.5 397.5,185.5 397.5,184.5C 402.363,184.819 407.03,184.486 411.5,183.5C 412.791,183.737 413.791,183.404 414.5,182.5C 420.068,182.369 425.734,182.203 431.5,182C 436.446,177.054 441.446,172.054 446.5,167C 454.493,166.5 462.493,166.334 470.5,166.5 Z"/></g>
<g><path style="opacity:0.902" fill="#4b3a82" d="M 330.5,183.5 C 335.159,183.015 336.492,184.848 334.5,189C 329.728,189.81 328.395,187.977 330.5,183.5 Z"/></g>
<g><path style="opacity:1" fill="#5643a4" d="M 323.5,191.5 C 322.294,192.88 322.627,194.047 324.5,195C 323.095,196.269 321.429,196.769 319.5,196.5C 319.5,197.5 319.5,198.5 319.5,199.5C 324.489,198.778 329.489,198.612 334.5,199C 330.833,200.5 327.167,202 323.5,203.5C 322.038,202.529 320.705,202.862 319.5,204.5C 327.28,206.899 327.28,208.899 319.5,210.5C 319.167,211.167 318.833,211.833 318.5,212.5C 324.149,215.332 323.816,217.165 317.5,218C 315.986,219.439 315.653,220.939 316.5,222.5C 319.007,219.435 321.34,219.269 323.5,222C 322.216,222.684 321.049,222.517 320,221.5C 319.517,222.448 319.351,223.448 319.5,224.5C 320.5,224.5 321.5,224.5 322.5,224.5C 320.192,226.471 317.858,228.471 315.5,230.5C 313.099,229.951 310.765,229.118 308.5,228C 308.957,227.586 309.291,227.086 309.5,226.5C 302.181,225.307 301.181,227.141 306.5,232C 307.449,232.617 308.282,232.451 309,231.5C 309.49,232.793 309.657,234.127 309.5,235.5C 305.54,235.633 303.04,234.3 302,231.5C 297.544,234.969 293.044,238.303 288.5,241.5C 287.707,241.069 286.873,240.735 286,240.5C 274.036,246.392 261.536,250.726 248.5,253.5C 247.167,253.5 245.833,253.5 244.5,253.5C 247.429,252.462 250.429,251.296 253.5,250C 252.5,249.667 251.5,249.333 250.5,249C 252.441,248.257 254.274,248.424 256,249.5C 260.243,247.312 264.743,245.812 269.5,245C 272.726,243.894 275.393,242.061 277.5,239.5C 278.5,240.833 279.5,240.833 280.5,239.5C 285.13,235.573 287.63,230.573 288,224.5C 288.333,224.833 288.667,225.167 289,225.5C 291.164,222.553 291.998,219.219 291.5,215.5C 292.873,215.657 294.207,215.49 295.5,215C 293.487,214.32 292.154,212.987 291.5,211C 292.573,209.584 292.573,208.25 291.5,207C 292.833,206.333 294.167,205.667 295.5,205C 292.783,204.957 292.116,203.957 293.5,202C 292.107,200.699 291.607,199.199 292,197.5C 292.333,198.167 292.667,198.833 293,199.5C 294.035,196.037 293.202,193.204 290.5,191C 293.168,189.181 296.001,189.015 299,190.5C 304.632,188.601 304.132,187.268 297.5,186.5C 295.971,186.529 294.804,187.196 294,188.5C 293.5,188 293,187.5 292.5,187C 295.576,186.089 297.909,184.256 299.5,181.5C 307.145,180.335 314.812,180.169 322.5,181C 322.167,181.333 321.833,181.667 321.5,182C 323.286,182.196 324.619,183.029 325.5,184.5C 323.262,185.853 321.929,187.853 321.5,190.5C 321.957,191.298 322.624,191.631 323.5,191.5 Z"/></g>
<g><path style="opacity:1" fill="#b93bc1" d="M 534.5,184.5 C 540.028,183.069 543.362,185.069 544.5,190.5C 542.973,196.19 539.306,198.024 533.5,196C 529.465,191.864 529.798,188.031 534.5,184.5 Z"/></g>
<g><path style="opacity:1" fill="#4e409a" d="M 352.5,173.5 C 349.704,176.797 346.704,179.964 343.5,183C 341.833,183.667 340.167,183.667 338.5,183C 335.42,180.184 332.087,179.851 328.5,182C 324.925,187.772 326.425,191.605 333,193.5C 336.195,192.149 338.028,189.815 338.5,186.5C 341.188,186.834 343.521,186.168 345.5,184.5C 345.586,185.496 345.252,186.329 344.5,187C 342.866,187.494 341.199,187.66 339.5,187.5C 337.652,194.403 333.318,196.403 326.5,193.5C 326.5,192.5 326.5,191.5 326.5,190.5C 325.209,190.263 324.209,190.596 323.5,191.5C 322.624,191.631 321.957,191.298 321.5,190.5C 321.929,187.853 323.262,185.853 325.5,184.5C 324.619,183.029 323.286,182.196 321.5,182C 321.833,181.667 322.167,181.333 322.5,181C 314.812,180.169 307.145,180.335 299.5,181.5C 297.909,184.256 295.576,186.089 292.5,187C 293,187.5 293.5,188 294,188.5C 294.804,187.196 295.971,186.529 297.5,186.5C 304.132,187.268 304.632,188.601 299,190.5C 296.001,189.015 293.168,189.181 290.5,191C 293.202,193.204 294.035,196.037 293,199.5C 292.667,198.833 292.333,198.167 292,197.5C 291.607,199.199 292.107,200.699 293.5,202C 292.116,203.957 292.783,204.957 295.5,205C 294.167,205.667 292.833,206.333 291.5,207C 292.573,208.25 292.573,209.584 291.5,211C 292.154,212.987 293.487,214.32 295.5,215C 294.207,215.49 292.873,215.657 291.5,215.5C 291.998,219.219 291.164,222.553 289,225.5C 288.667,225.167 288.333,224.833 288,224.5C 287.63,230.573 285.13,235.573 280.5,239.5C 279.5,240.833 278.5,240.833 277.5,239.5C 275.393,242.061 272.726,243.894 269.5,245C 264.743,245.812 260.243,247.312 256,249.5C 254.274,248.424 252.441,248.257 250.5,249C 251.5,249.333 252.5,249.667 253.5,250C 250.429,251.296 247.429,252.462 244.5,253.5C 233.149,256.047 221.815,256.047 210.5,253.5C 209.737,252.732 208.737,252.232 207.5,252C 208.793,251.51 210.127,251.343 211.5,251.5C 219.7,252.754 228.033,252.587 236.5,251C 245.558,249.152 254.558,246.818 263.5,244C 270.176,240.33 276.509,236.164 282.5,231.5C 282.998,228.465 284.332,225.965 286.5,224C 285.346,223.086 285.513,222.253 287,221.5C 287.495,219.527 287.662,217.527 287.5,215.5C 288.552,215.649 289.552,215.483 290.5,215C 286.858,212.244 286.525,209.077 289.5,205.5C 287.829,203.49 287.162,201.157 287.5,198.5C 286.178,198.33 285.011,198.663 284,199.5C 282.666,198.122 282.499,196.789 283.5,195.5C 287.518,190.762 291.518,186.095 295.5,181.5C 295.953,180.542 296.619,179.708 297.5,179C 305.896,179.14 313.896,178.307 321.5,176.5C 321.5,176.167 321.5,175.833 321.5,175.5C 322.467,176.806 323.801,177.473 325.5,177.5C 325.238,178.978 325.571,180.311 326.5,181.5C 329.047,180.066 331.381,178.4 333.5,176.5C 335.171,178.978 337.504,180.478 340.5,181C 340.167,181.333 339.833,181.667 339.5,182C 341.238,181.862 342.905,181.362 344.5,180.5C 344.33,179.178 344.663,178.011 345.5,177C 347.739,175.582 350.072,174.415 352.5,173.5 Z"/></g>
<g><path style="opacity:1" fill="#302e6e" d="M 252.5,181.5 C 266.833,181.5 281.167,181.5 295.5,181.5C 291.518,186.095 287.518,190.762 283.5,195.5C 280.904,196.265 278.237,196.599 275.5,196.5C 275.662,198.527 275.495,200.527 275,202.5C 271.28,204.767 268.113,207.6 265.5,211C 263.866,211.494 262.199,211.66 260.5,211.5C 265.167,207.833 269.833,204.167 274.5,200.5C 274.389,199.883 274.056,199.383 273.5,199C 251.826,198.833 230.159,198.333 208.5,197.5C 210.766,196.686 213.1,196.186 215.5,196C 231.672,195.831 247.672,195.331 263.5,194.5C 269.842,194.666 276.175,194.5 282.5,194C 284.5,192 286.5,190 288.5,188C 287.207,187.51 285.873,187.343 284.5,187.5C 275.009,186.67 265.342,186.17 255.5,186C 253.833,185.667 252.167,185.333 250.5,185C 244.758,178.691 245.424,177.524 252.5,181.5 Z"/></g>
<g><path style="opacity:1" fill="#d03ad4" d="M 547.5,150.5 C 550.337,152.402 553.671,153.069 557.5,152.5C 557.52,154.143 556.853,155.476 555.5,156.5C 557.167,157.5 558.5,158.833 559.5,160.5C 556.384,166.454 555.718,172.454 557.5,178.5C 557.489,185.352 557.322,192.352 557,199.5C 556.075,203.068 554.241,206.068 551.5,208.5C 552.729,209.281 554.062,209.781 555.5,210C 553.232,211.558 552.066,213.724 552,216.5C 549.134,217.898 547.634,220.232 547.5,223.5C 545.537,225.399 544.037,227.733 543,230.5C 540.564,232.467 538.064,234.134 535.5,235.5C 532.843,235.162 530.51,235.829 528.5,237.5C 527.478,237.145 526.811,236.478 526.5,235.5C 528.648,235.611 528.981,234.944 527.5,233.5C 528.857,231.435 530.19,229.435 531.5,227.5C 539.51,227.094 541.51,223.427 537.5,216.5C 538.239,216.631 538.906,216.464 539.5,216C 537.603,214.735 536.27,213.069 535.5,211C 536.684,208.284 537.684,205.451 538.5,202.5C 544.507,201.332 547.84,197.832 548.5,192C 548.351,188.06 547.684,184.227 546.5,180.5C 540.833,180.5 535.167,180.5 529.5,180.5C 529.5,181.833 529.5,183.167 529.5,184.5C 529.167,185.167 528.833,185.833 528.5,186.5C 526.409,187.865 524.076,188.532 521.5,188.5C 522.791,182.906 523.791,177.239 524.5,171.5C 526.288,171.785 527.955,171.452 529.5,170.5C 528.311,169.571 526.978,169.238 525.5,169.5C 525.238,168.022 525.571,166.689 526.5,165.5C 528.524,168.206 531.19,169.539 534.5,169.5C 534.5,170.5 534.5,171.5 534.5,172.5C 531.2,174.152 532.534,173.652 538.5,171C 535.842,168.673 532.842,167.006 529.5,166C 532.793,164.392 536.127,164.225 539.5,165.5C 539.711,163.362 540.045,161.195 540.5,159C 539.971,157.441 539.304,155.941 538.5,154.5C 539.325,153.614 540.325,153.281 541.5,153.5C 541.5,152.167 541.5,150.833 541.5,149.5C 543.565,149.517 545.565,149.85 547.5,150.5 Z"/></g>
<g><path style="opacity:1" fill="#522283" d="M 351.5,194.5 C 374.5,194.5 397.5,194.5 420.5,194.5C 409.359,195.861 398.026,196.694 386.5,197C 385.692,198.706 384.359,199.539 382.5,199.5C 382.244,201.912 383.244,203.579 385.5,204.5C 386.386,203.675 386.719,202.675 386.5,201.5C 391.606,200.108 392.439,201.441 389,205.5C 388.333,206.5 388.333,207.5 389,208.5C 392.046,209.683 394.88,211.016 397.5,212.5C 390.235,211.449 384.235,207.949 379.5,202C 378.833,201.333 378.167,201.333 377.5,202C 381.167,205.667 384.833,209.333 388.5,213C 392.856,212.565 396.19,214.065 398.5,217.5C 395.753,216.034 392.753,215.201 389.5,215C 386.541,213.631 384.374,212.131 383,210.5C 381.5,211 380,211.5 378.5,212C 379.252,212.671 379.586,213.504 379.5,214.5C 374.427,210.934 369.76,206.768 365.5,202C 364.5,201.333 363.5,201.333 362.5,202C 370.062,209.73 377.728,217.23 385.5,224.5C 382.784,222.816 379.784,221.65 376.5,221C 374.845,219.556 374.178,217.722 374.5,215.5C 372.394,215.679 370.728,216.679 369.5,218.5C 371.131,221.058 372.465,223.725 373.5,226.5C 364.5,218.167 355.833,209.5 347.5,200.5C 346.862,197.144 348.196,195.144 351.5,194.5 Z"/></g>
<g><path style="opacity:1" fill="#9031a5" d="M 421.5,194.5 C 434.171,194.333 446.838,194.5 459.5,195C 467.47,201.969 475.136,209.302 482.5,217C 490.115,218.146 497.782,218.812 505.5,219C 506.381,219.708 507.047,220.542 507.5,221.5C 500.539,220.631 493.539,219.964 486.5,219.5C 486.435,222.998 485.101,223.498 482.5,221C 483.328,220.085 484.328,219.419 485.5,219C 483.421,218.192 481.421,218.359 479.5,219.5C 481.316,221.817 483.316,223.984 485.5,226C 489.934,226.418 494.267,227.251 498.5,228.5C 498.404,223.544 499.404,223.377 501.5,228C 500.473,231.403 499.14,234.57 497.5,237.5C 497.896,234.518 497.229,231.851 495.5,229.5C 492.518,228.602 489.518,228.435 486.5,229C 476.328,219.661 466.328,210.161 456.5,200.5C 447.342,199.67 438.009,199.17 428.5,199C 422.825,198.536 422.492,197.869 427.5,197C 425.389,196.155 423.389,195.322 421.5,194.5 Z"/></g>
<g><path style="opacity:1" fill="#2c2d62" d="M 263.5,194.5 C 247.672,195.331 231.672,195.831 215.5,196C 213.1,196.186 210.766,196.686 208.5,197.5C 230.159,198.333 251.826,198.833 273.5,199C 274.056,199.383 274.389,199.883 274.5,200.5C 251.164,200.333 227.831,200.5 204.5,201C 199.484,206.755 194.317,206.922 189,201.5C 187.04,191.458 190.873,187.625 200.5,190C 201.833,191.333 203.167,192.667 204.5,194C 224.164,194.5 243.831,194.667 263.5,194.5 Z M 195.5,194.5 C 197.759,195.344 198.759,197.011 198.5,199.5C 197.167,199.5 195.833,199.5 194.5,199.5C 194.366,197.708 194.699,196.042 195.5,194.5 Z"/></g>
<g><path style="opacity:1" fill="#6647a9" d="M 416.5,150.5 C 407.04,151.977 397.374,152.81 387.5,153C 388.167,153.667 388.833,154.333 389.5,155C 393.025,155.179 396.359,155.679 399.5,156.5C 395.486,156.334 391.486,156.501 387.5,157C 385.627,158.704 383.96,160.537 382.5,162.5C 372.238,171.765 362.571,181.765 353.5,192.5C 352.5,192.833 351.833,193.5 351.5,194.5C 348.196,195.144 346.862,197.144 347.5,200.5C 346.761,200.369 346.094,200.536 345.5,201C 338.328,209.338 330.662,217.171 322.5,224.5C 321.5,224.5 320.5,224.5 319.5,224.5C 319.351,223.448 319.517,222.448 320,221.5C 321.049,222.517 322.216,222.684 323.5,222C 321.34,219.269 319.007,219.435 316.5,222.5C 315.653,220.939 315.986,219.439 317.5,218C 323.816,217.165 324.149,215.332 318.5,212.5C 318.833,211.833 319.167,211.167 319.5,210.5C 327.28,208.899 327.28,206.899 319.5,204.5C 320.705,202.862 322.038,202.529 323.5,203.5C 327.167,202 330.833,200.5 334.5,199C 329.489,198.612 324.489,198.778 319.5,199.5C 319.5,198.5 319.5,197.5 319.5,196.5C 321.429,196.769 323.095,196.269 324.5,195C 322.627,194.047 322.294,192.88 323.5,191.5C 324.209,190.596 325.209,190.263 326.5,190.5C 326.5,191.5 326.5,192.5 326.5,193.5C 333.318,196.403 337.652,194.403 339.5,187.5C 341.199,187.66 342.866,187.494 344.5,187C 345.252,186.329 345.586,185.496 345.5,184.5C 356.968,173.2 368.635,162.034 380.5,151C 392.495,150.5 404.495,150.333 416.5,150.5 Z"/></g>
<g><path style="opacity:1" fill="#423792" d="M 283.5,195.5 C 282.499,196.789 282.666,198.122 284,199.5C 285.011,198.663 286.178,198.33 287.5,198.5C 287.162,201.157 287.829,203.49 289.5,205.5C 286.525,209.077 286.858,212.244 290.5,215C 289.552,215.483 288.552,215.649 287.5,215.5C 287.662,217.527 287.495,219.527 287,221.5C 285.513,222.253 285.346,223.086 286.5,224C 284.332,225.965 282.998,228.465 282.5,231.5C 276.509,236.164 270.176,240.33 263.5,244C 254.558,246.818 245.558,249.152 236.5,251C 228.033,252.587 219.7,252.754 211.5,251.5C 212.873,251.657 214.207,251.49 215.5,251C 213.942,250.79 212.609,250.29 211.5,249.5C 214.373,249.198 217.039,248.531 219.5,247.5C 229.26,248.274 238.26,246.108 246.5,241C 246.167,240.667 245.833,240.333 245.5,240C 249.179,237.47 250.512,234.137 249.5,230C 250.676,228.086 251.676,228.252 252.5,230.5C 254.738,227.567 255.738,227.901 255.5,231.5C 258.012,231.577 260.012,230.577 261.5,228.5C 260.609,227.41 259.609,227.41 258.5,228.5C 256.726,224.843 257.726,222.343 261.5,221C 263.515,219.445 263.848,217.611 262.5,215.5C 259.174,218.666 255.507,219.166 251.5,217C 254.05,215.63 256.717,214.463 259.5,213.5C 260.298,213.043 260.631,212.376 260.5,211.5C 262.199,211.66 263.866,211.494 265.5,211C 268.113,207.6 271.28,204.767 275,202.5C 275.495,200.527 275.662,198.527 275.5,196.5C 278.237,196.599 280.904,196.265 283.5,195.5 Z"/></g>
<g><path style="opacity:1" fill="#b32ebd" d="M 537.5,216.5 C 534.538,215.198 531.705,215.531 529,217.5C 522.069,212.739 515.903,207.072 510.5,200.5C 513.739,192.882 519.405,190.382 527.5,193C 532.366,201.449 538.533,202.616 546,196.5C 549.343,185.177 545.176,180.344 533.5,182C 532.016,182.662 530.683,183.496 529.5,184.5C 529.5,183.167 529.5,181.833 529.5,180.5C 535.167,180.5 540.833,180.5 546.5,180.5C 547.684,184.227 548.351,188.06 548.5,192C 547.84,197.832 544.507,201.332 538.5,202.5C 537.684,205.451 536.684,208.284 535.5,211C 536.27,213.069 537.603,214.735 539.5,216C 538.906,216.464 538.239,216.631 537.5,216.5 Z"/></g>
<g><path style="opacity:1" fill="#a42fb5" d="M 531.5,227.5 C 530.19,229.435 528.857,231.435 527.5,233.5C 528.981,234.944 528.648,235.611 526.5,235.5C 519.671,228.838 512.671,222.338 505.5,216C 502.161,215.61 498.827,215.776 495.5,216.5C 493.611,216.564 491.944,216.064 490.5,215C 496.885,211.937 502.718,208.104 508,203.5C 514.655,209.487 521.322,215.487 528,221.5C 528.564,223.887 529.73,225.887 531.5,227.5 Z"/></g>
<g><path style="opacity:1" fill="#eb8feb" d="M 564.5,118.5 C 568.696,126.595 571.362,135.262 572.5,144.5C 572.665,147.85 572.498,151.183 572,154.5C 571.692,153.692 571.192,153.025 570.5,152.5C 569.503,160.138 569.169,167.804 569.5,175.5C 570.5,175.5 571.5,175.5 572.5,175.5C 572.5,177.5 572.5,179.5 572.5,181.5C 568.445,206.286 557.111,226.953 538.5,243.5C 538.982,240.169 537.982,237.503 535.5,235.5C 538.064,234.134 540.564,232.467 543,230.5C 544.037,227.733 545.537,225.399 547.5,223.5C 548.806,222.032 550.306,220.699 552,219.5C 552.643,215.895 554.31,212.895 557,210.5C 566.621,189.224 569.954,166.891 567,143.5C 565.263,139.348 564.096,135.014 563.5,130.5C 563.281,129.325 563.614,128.325 564.5,127.5C 565.729,131.286 566.396,131.286 566.5,127.5C 565.53,124.563 564.863,121.563 564.5,118.5 Z"/></g>
<g><path style="opacity:0.878" fill="#a446a8" d="M 532.5,218.5 C 534.567,218.532 535.9,219.532 536.5,221.5C 535.083,225.327 533.416,225.327 531.5,221.5C 531.685,220.416 532.018,219.416 532.5,218.5 Z"/></g>
<g><path style="opacity:1" fill="#342f82" d="M 260.5,211.5 C 260.631,212.376 260.298,213.043 259.5,213.5C 256.717,214.463 254.05,215.63 251.5,217C 255.507,219.166 259.174,218.666 262.5,215.5C 263.848,217.611 263.515,219.445 261.5,221C 257.726,222.343 256.726,224.843 258.5,228.5C 259.609,227.41 260.609,227.41 261.5,228.5C 260.012,230.577 258.012,231.577 255.5,231.5C 255.738,227.901 254.738,227.567 252.5,230.5C 251.676,228.252 250.676,228.086 249.5,230C 250.512,234.137 249.179,237.47 245.5,240C 245.833,240.333 246.167,240.667 246.5,241C 238.26,246.108 229.26,248.274 219.5,247.5C 218.127,247.657 216.793,247.49 215.5,247C 219.872,246.579 224.205,245.912 228.5,245C 226.846,244.392 225.179,243.892 223.5,243.5C 223.119,242.069 222.119,241.236 220.5,241C 221.905,239.731 223.571,239.231 225.5,239.5C 227.382,235.567 229.382,231.567 231.5,227.5C 229.904,224.701 230.57,222.701 233.5,221.5C 236.219,221.603 238.885,221.269 241.5,220.5C 242.713,220.253 243.38,219.586 243.5,218.5C 249.281,216.443 254.947,214.11 260.5,211.5 Z"/></g>
<g><path style="opacity:1" fill="#8627a3" d="M 425.5,207.5 C 439.844,217.292 455.511,221.292 472.5,219.5C 476.851,223.686 481.351,227.686 486,231.5C 487.151,238.991 490.985,240.991 497.5,237.5C 497.5,238.5 497.5,239.5 497.5,240.5C 493.416,240.957 489.583,240.29 486,238.5C 484.667,239.167 483.667,240.167 483,241.5C 482.586,241.043 482.086,240.709 481.5,240.5C 480.516,243.428 480.183,246.428 480.5,249.5C 479.833,249.833 479.167,250.167 478.5,250.5C 480.869,245.031 479.202,241.364 473.5,239.5C 471.64,240.26 469.973,241.26 468.5,242.5C 455.816,242.832 443.149,242.499 430.5,241.5C 431.908,240.757 433.241,239.923 434.5,239C 433.075,237.286 433.408,235.953 435.5,235C 439.211,234.175 442.878,234.341 446.5,235.5C 446.291,236.086 445.957,236.586 445.5,237C 449.126,238.64 452.793,238.806 456.5,237.5C 457.298,237.043 457.631,236.376 457.5,235.5C 459.206,228.704 456.539,225.87 449.5,227C 448.643,227.689 447.977,228.522 447.5,229.5C 441.193,230.664 434.859,230.831 428.5,230C 424.963,226.631 421.629,223.131 418.5,219.5C 416.261,215.916 413.594,212.583 410.5,209.5C 412.006,208.253 413.506,208.253 415,209.5C 418.118,207.111 421.618,206.444 425.5,207.5 Z"/></g>
<g><path style="opacity:1" fill="#6f2898" d="M 398.5,217.5 C 407.833,226.167 416.833,235.167 425.5,244.5C 424.25,244.577 423.417,245.244 423,246.5C 421.192,244.157 419.026,243.49 416.5,244.5C 417.421,246.756 419.088,247.756 421.5,247.5C 421.351,248.552 421.517,249.552 422,250.5C 424.04,252.37 425.873,254.37 427.5,256.5C 415.753,246.257 404.42,235.423 393.5,224C 387.403,223.09 382.736,219.923 379.5,214.5C 379.586,213.504 379.252,212.671 378.5,212C 380,211.5 381.5,211 383,210.5C 384.374,212.131 386.541,213.631 389.5,215C 392.753,215.201 395.753,216.034 398.5,217.5 Z"/></g>
<g><path style="opacity:0.8" fill="#6c287b" d="M 452.5,228.5 C 456.184,230.203 456.351,232.203 453,234.5C 449.898,232.663 449.731,230.663 452.5,228.5 Z"/></g>
<g><path style="opacity:0.882" fill="#6f237a" d="M 490.5,231.5 C 495.584,231.966 496.25,233.632 492.5,236.5C 490.783,235.332 490.116,233.665 490.5,231.5 Z"/></g>
<g><path style="opacity:1" fill="#a42bb9" d="M 507.5,221.5 C 510.833,224.167 513.833,227.167 516.5,230.5C 516.5,231.833 516.5,233.167 516.5,234.5C 520.109,234.775 522.109,236.775 522.5,240.5C 519.156,242.174 516.156,244.34 513.5,247C 507.035,248.77 500.535,250.27 494,251.5C 489.596,250.483 485.263,250.483 481,251.5C 480.536,250.906 480.369,250.239 480.5,249.5C 480.183,246.428 480.516,243.428 481.5,240.5C 482.086,240.709 482.586,241.043 483,241.5C 483.667,240.167 484.667,239.167 486,238.5C 489.583,240.29 493.416,240.957 497.5,240.5C 497.5,239.5 497.5,238.5 497.5,237.5C 499.14,234.57 500.473,231.403 501.5,228C 499.404,223.377 498.404,223.544 498.5,228.5C 494.267,227.251 489.934,226.418 485.5,226C 483.316,223.984 481.316,221.817 479.5,219.5C 481.421,218.359 483.421,218.192 485.5,219C 484.328,219.419 483.328,220.085 482.5,221C 485.101,223.498 486.435,222.998 486.5,219.5C 493.539,219.964 500.539,220.631 507.5,221.5 Z"/></g>
<g><path style="opacity:1" fill="#742995" d="M 420.5,194.5 C 420.833,194.5 421.167,194.5 421.5,194.5C 423.389,195.322 425.389,196.155 427.5,197C 422.492,197.869 422.825,198.536 428.5,199C 438.009,199.17 447.342,199.67 456.5,200.5C 443.829,200.333 431.162,200.5 418.5,201C 420.729,203.4 423.063,205.567 425.5,207.5C 421.618,206.444 418.118,207.111 415,209.5C 413.506,208.253 412.006,208.253 410.5,209.5C 413.594,212.583 416.261,215.916 418.5,219.5C 411.793,212.791 404.793,206.457 397.5,200.5C 406.638,211.155 416.638,221.655 427.5,232C 434.191,232.169 440.858,232.669 447.5,233.5C 450.058,237.973 453.392,238.639 457.5,235.5C 457.631,236.376 457.298,237.043 456.5,237.5C 452.793,238.806 449.126,238.64 445.5,237C 445.957,236.586 446.291,236.086 446.5,235.5C 442.878,234.341 439.211,234.175 435.5,235C 433.408,235.953 433.075,237.286 434.5,239C 433.241,239.923 431.908,240.757 430.5,241.5C 443.149,242.499 455.816,242.832 468.5,242.5C 468.389,243.117 468.056,243.617 467.5,244C 454.5,244.667 441.5,244.667 428.5,244C 417.965,233.632 407.631,223.132 397.5,212.5C 394.88,211.016 392.046,209.683 389,208.5C 388.333,207.5 388.333,206.5 389,205.5C 392.439,201.441 391.606,200.108 386.5,201.5C 386.719,202.675 386.386,203.675 385.5,204.5C 383.244,203.579 382.244,201.912 382.5,199.5C 384.359,199.539 385.692,198.706 386.5,197C 398.026,196.694 409.359,195.861 420.5,194.5 Z"/></g>
<g><path style="opacity:1" fill="#5e50ae" d="M 315.5,230.5 C 312.789,234.212 309.456,237.212 305.5,239.5C 302.788,240.99 300.288,240.656 298,238.5C 297.5,239 297,239.5 296.5,240C 301.34,240.829 301.673,242.496 297.5,245C 295.5,245 293.5,245 291.5,245C 291.167,245.333 290.833,245.667 290.5,246C 291.428,246.388 292.095,247.055 292.5,248C 291.295,249.538 289.795,250.705 288,251.5C 286.203,250.654 284.37,249.654 282.5,248.5C 279.99,248.833 277.823,249.833 276,251.5C 275.275,250.941 274.442,250.608 273.5,250.5C 265.132,253.839 256.466,255.339 247.5,255C 248.056,254.617 248.389,254.117 248.5,253.5C 261.536,250.726 274.036,246.392 286,240.5C 286.873,240.735 287.707,241.069 288.5,241.5C 293.044,238.303 297.544,234.969 302,231.5C 303.04,234.3 305.54,235.633 309.5,235.5C 309.657,234.127 309.49,232.793 309,231.5C 308.282,232.451 307.449,232.617 306.5,232C 301.181,227.141 302.181,225.307 309.5,226.5C 309.291,227.086 308.957,227.586 308.5,228C 310.765,229.118 313.099,229.951 315.5,230.5 Z"/></g>
<g><path style="opacity:0.027" fill="#b592b5" d="M 538.5,243.5 C 537.833,244.167 537.833,244.167 538.5,243.5 Z"/></g>
<g><path style="opacity:0.969" fill="#7d3091" d="M 472.5,242.5 C 475.999,243.134 476.999,244.967 475.5,248C 470.289,248.546 469.289,246.713 472.5,242.5 Z"/></g>
<g><path style="opacity:1" fill="#6f2a9e" d="M 385.5,224.5 C 387.746,225.21 390.08,225.71 392.5,226C 403.5,237 414.5,248 425.5,259C 438.162,259.5 450.829,259.667 463.5,259.5C 463.5,259.833 463.5,260.167 463.5,260.5C 462.5,260.5 461.5,260.5 460.5,260.5C 447.788,259.854 435.455,260.52 423.5,262.5C 404.353,253.928 387.686,241.928 373.5,226.5C 372.465,223.725 371.131,221.058 369.5,218.5C 370.728,216.679 372.394,215.679 374.5,215.5C 374.178,217.722 374.845,219.556 376.5,221C 379.784,221.65 382.784,222.816 385.5,224.5 Z"/></g>
<g><path style="opacity:0.989" fill="#8531a7" d="M 425.5,244.5 C 427.904,246.972 430.904,247.972 434.5,247.5C 444.547,246.585 454.88,246.418 465.5,247C 468.637,252.66 472.97,253.827 478.5,250.5C 478.229,252.43 477.229,253.764 475.5,254.5C 473.473,254.338 471.473,254.505 469.5,255C 467.797,257.332 465.797,259.165 463.5,260.5C 463.5,260.167 463.5,259.833 463.5,259.5C 464.289,259.217 464.956,258.717 465.5,258C 452.66,257.831 439.993,257.331 427.5,256.5C 425.873,254.37 424.04,252.37 422,250.5C 421.517,249.552 421.351,248.552 421.5,247.5C 419.088,247.756 417.421,246.756 416.5,244.5C 419.026,243.49 421.192,244.157 423,246.5C 423.417,245.244 424.25,244.577 425.5,244.5 Z"/></g>
<g><path style="opacity:1" fill="#ba4dcf" d="M 516.5,230.5 C 521.286,234.279 525.286,238.613 528.5,243.5C 526.441,247.355 523.108,249.521 518.5,250C 516.597,251.447 514.93,253.114 513.5,255C 504.486,258.057 495.153,259.391 485.5,259C 484.837,260.518 483.837,261.685 482.5,262.5C 480.833,262.5 479.167,262.5 477.5,262.5C 477.307,259.692 476.64,257.025 475.5,254.5C 477.229,253.764 478.229,252.43 478.5,250.5C 479.167,250.167 479.833,249.833 480.5,249.5C 480.369,250.239 480.536,250.906 481,251.5C 485.263,250.483 489.596,250.483 494,251.5C 500.535,250.27 507.035,248.77 513.5,247C 516.156,244.34 519.156,242.174 522.5,240.5C 522.109,236.775 520.109,234.775 516.5,234.5C 516.5,233.167 516.5,231.833 516.5,230.5 Z"/></g>
<g><path style="opacity:1" fill="#db83e7" d="M 528.5,243.5 C 531.222,245.773 534.222,246.107 537.5,244.5C 528.861,252.829 518.861,259.162 507.5,263.5C 505.712,263.785 504.045,263.452 502.5,262.5C 502.709,261.914 503.043,261.414 503.5,261C 494.965,259.144 487.298,260.811 480.5,266C 479.901,267.622 479.234,269.122 478.5,270.5C 476.553,269.85 474.887,268.683 473.5,267C 476.983,266.235 479.983,264.735 482.5,262.5C 483.837,261.685 484.837,260.518 485.5,259C 495.153,259.391 504.486,258.057 513.5,255C 514.93,253.114 516.597,251.447 518.5,250C 523.108,249.521 526.441,247.355 528.5,243.5 Z"/></g>
<g><path style="opacity:1" fill="#635bb1" d="M 305.5,239.5 C 295.904,249.082 284.904,256.748 272.5,262.5C 262.972,261.646 253.305,261.98 243.5,263.5C 233.481,262.38 223.481,261.214 213.5,260C 214.634,258.984 214.301,258.317 212.5,258C 202.82,257.255 193.154,256.589 183.5,256C 179.071,254.543 175.071,252.377 171.5,249.5C 173.199,249.34 174.866,249.506 176.5,250C 178.788,250.946 180.955,252.113 183,253.5C 191.957,253.445 201.124,253.445 210.5,253.5C 221.815,256.047 233.149,256.047 244.5,253.5C 245.833,253.5 247.167,253.5 248.5,253.5C 248.389,254.117 248.056,254.617 247.5,255C 256.466,255.339 265.132,253.839 273.5,250.5C 274.442,250.608 275.275,250.941 276,251.5C 277.823,249.833 279.99,248.833 282.5,248.5C 284.37,249.654 286.203,250.654 288,251.5C 289.795,250.705 291.295,249.538 292.5,248C 292.095,247.055 291.428,246.388 290.5,246C 290.833,245.667 291.167,245.333 291.5,245C 293.5,245 295.5,245 297.5,245C 301.673,242.496 301.34,240.829 296.5,240C 297,239.5 297.5,239 298,238.5C 300.288,240.656 302.788,240.99 305.5,239.5 Z"/></g>
<g><path style="opacity:1" fill="#dfa1ec" d="M 507.5,263.5 C 505.786,264.738 503.786,265.405 501.5,265.5C 500.761,265.631 500.094,265.464 499.5,265C 500.337,263.989 500.67,262.822 500.5,261.5C 497.482,261.335 494.482,261.502 491.5,262C 488.886,264.243 488.886,266.41 491.5,268.5C 486.894,269.755 482.227,270.755 477.5,271.5C 477.5,270.833 477.833,270.5 478.5,270.5C 479.234,269.122 479.901,267.622 480.5,266C 487.298,260.811 494.965,259.144 503.5,261C 503.043,261.414 502.709,261.914 502.5,262.5C 504.045,263.452 505.712,263.785 507.5,263.5 Z"/></g>
<g><path style="opacity:1" fill="#7973be" d="M 152.5,241.5 C 155.412,243.066 158.079,245.066 160.5,247.5C 160.5,245.833 160.5,244.167 160.5,242.5C 164.454,244.468 168.121,246.801 171.5,249.5C 175.071,252.377 179.071,254.543 183.5,256C 193.154,256.589 202.82,257.255 212.5,258C 214.301,258.317 214.634,258.984 213.5,260C 223.481,261.214 233.481,262.38 243.5,263.5C 253.305,261.98 262.972,261.646 272.5,262.5C 259.816,268.304 246.482,271.304 232.5,271.5C 230.801,271.66 229.134,271.494 227.5,271C 233.987,269.968 240.321,268.302 246.5,266C 238.167,265.667 229.833,265.333 221.5,265C 208.705,261.554 195.705,259.22 182.5,258C 183.748,259.959 185.415,261.459 187.5,262.5C 187.043,263.298 186.376,263.631 185.5,263.5C 172.862,258.512 161.862,251.179 152.5,241.5 Z"/></g>
<g><path style="opacity:1" fill="#9a40bf" d="M 460.5,260.5 C 459.708,262.257 458.375,263.591 456.5,264.5C 453.572,265.484 450.572,265.817 447.5,265.5C 447.843,267.483 447.176,268.817 445.5,269.5C 437.706,268.345 430.373,266.012 423.5,262.5C 435.455,260.52 447.788,259.854 460.5,260.5 Z"/></g>
<g><path style="opacity:0.835" fill="#f2caf4" d="M 501.5,265.5 C 498.257,266.49 494.924,267.49 491.5,268.5C 488.886,266.41 488.886,264.243 491.5,262C 494.482,261.502 497.482,261.335 500.5,261.5C 500.67,262.822 500.337,263.989 499.5,265C 500.094,265.464 500.761,265.631 501.5,265.5 Z"/></g>
<g><path style="opacity:1" fill="#b662d5" d="M 475.5,254.5 C 476.64,257.025 477.307,259.692 477.5,262.5C 479.167,262.5 480.833,262.5 482.5,262.5C 479.983,264.735 476.983,266.235 473.5,267C 474.887,268.683 476.553,269.85 478.5,270.5C 477.833,270.5 477.5,270.833 477.5,271.5C 466.609,272.59 455.943,271.924 445.5,269.5C 447.176,268.817 447.843,267.483 447.5,265.5C 450.572,265.817 453.572,265.484 456.5,264.5C 458.375,263.591 459.708,262.257 460.5,260.5C 461.5,260.5 462.5,260.5 463.5,260.5C 465.797,259.165 467.797,257.332 469.5,255C 471.473,254.505 473.473,254.338 475.5,254.5 Z"/></g>
<g><path style="opacity:0.965" fill="#a09ed0" d="M 232.5,271.5 C 216.252,272.719 200.585,270.053 185.5,263.5C 186.376,263.631 187.043,263.298 187.5,262.5C 185.415,261.459 183.748,259.959 182.5,258C 195.705,259.22 208.705,261.554 221.5,265C 229.833,265.333 238.167,265.667 246.5,266C 240.321,268.302 233.987,269.968 227.5,271C 229.134,271.494 230.801,271.66 232.5,271.5 Z"/></g>
<g><path style="opacity:1" fill="#d1d1f0" d="M 194.5,262.5 C 199.492,262.999 204.492,263.499 209.5,264C 211.332,264.748 212.999,265.748 214.5,267C 209.102,268.853 203.768,268.52 198.5,266C 196.456,265.502 195.122,264.335 194.5,262.5 Z"/></g>
</svg>
